<svg width="46" height="46" viewBox="0 0 46 46" fill="none" xmlns="http://www.w3.org/2000/svg">
<path d="M23 3.83337C33.5853 3.83337 42.1666 12.4146 42.1666 23C42.1666 33.5854 33.5853 42.1667 23 42.1667C12.4145 42.1667 3.83331 33.5854 3.83331 23C3.83331 12.4146 12.4145 3.83337 23 3.83337ZM23.3061 30.6667C19.4049 30.6667 15.8926 32.3317 13.4411 34.9899C16.0624 37.0826 19.3851 38.3334 23 38.3334C26.7749 38.3334 30.231 36.9693 32.9026 34.7072C30.4665 32.2142 27.067 30.6667 23.3061 30.6667ZM23 7.66671C14.5316 7.66671 7.66665 14.5317 7.66665 23C7.66665 26.4704 8.81952 29.6714 10.7632 32.2411C13.9081 28.9112 18.3644 26.8334 23.3061 26.8334C28.0678 26.8334 32.3788 28.7627 35.5001 31.8823C37.2841 29.3762 38.3333 26.3107 38.3333 23C38.3333 14.5317 31.4684 7.66671 23 7.66671ZM23 9.58337C27.2341 9.58337 30.6666 13.0159 30.6666 17.25C30.6666 21.4841 27.2341 24.9167 23 24.9167C18.7658 24.9167 15.3333 21.4841 15.3333 17.25C15.3333 13.0159 18.7658 9.58337 23 9.58337ZM23 13.4167C20.8828 13.4167 19.1666 15.1329 19.1666 17.25C19.1666 19.3672 20.8828 21.0834 23 21.0834C25.1171 21.0834 26.8333 19.3672 26.8333 17.25C26.8333 15.1329 25.1171 13.4167 23 13.4167Z" fill="#DE0B7F"/>
</svg>
