<svg width="40" height="40" viewBox="0 0 40 40" fill="none" xmlns="http://www.w3.org/2000/svg">
<path d="M20 0.833328C30.5853 0.833328 39.1666 9.41453 39.1666 20C39.1666 30.5854 30.5853 39.1667 20 39.1667C9.41452 39.1667 0.833313 30.5854 0.833313 20C0.833313 9.41453 9.41452 0.833328 20 0.833328ZM20.3061 27.6667C16.4049 27.6667 12.8926 29.3317 10.4411 31.9899C13.0624 34.0825 16.3851 35.3333 20 35.3333C23.7749 35.3333 27.231 33.9692 29.9026 31.7072C27.4665 29.2142 24.067 27.6667 20.3061 27.6667ZM20 4.66666C11.5316 4.66666 4.66665 11.5316 4.66665 20C4.66665 23.4703 5.81952 26.6713 7.76316 29.241C10.9081 25.9112 15.3644 23.8333 20.3061 23.8333C25.0678 23.8333 29.3788 25.7626 32.5001 28.8822C34.2841 26.3762 35.3333 23.3107 35.3333 20C35.3333 11.5316 28.4684 4.66666 20 4.66666ZM20 6.58333C24.2341 6.58333 27.6666 10.0158 27.6666 14.25C27.6666 18.4841 24.2341 21.9167 20 21.9167C15.7658 21.9167 12.3333 18.4841 12.3333 14.25C12.3333 10.0158 15.7658 6.58333 20 6.58333ZM20 10.4167C17.8828 10.4167 16.1666 12.1329 16.1666 14.25C16.1666 16.3671 17.8828 18.0833 20 18.0833C22.1171 18.0833 23.8333 16.3671 23.8333 14.25C23.8333 12.1329 22.1171 10.4167 20 10.4167Z" fill="white"/>
</svg>
