<svg width="1323" height="447" viewBox="0 0 1323 447" fill="none" xmlns="http://www.w3.org/2000/svg">
<g clip-path="url(#clip0_138_509)">
<path d="M120.052 157.516C122.676 157.516 123.002 158.465 125.254 157.516C127.506 156.567 134.146 152.176 136.398 151.577C146 149.014 125.609 159.77 127.989 159.147C129.234 158.826 141.688 153.813 142.875 151.512L144.754 147.861C144.754 147.861 152.319 155.6 153 155.903C154.572 156.573 154.513 152.182 156.591 153.056C158.668 153.929 154.385 157.103 161.083 154.907C163.068 154.255 162.049 152.811 162.049 152.811C161.729 152.724 164.377 151.332 175.818 155.851C177.959 156.701 184.448 157.4 186.292 157.994C188.137 158.588 188.806 156.951 191.326 158.297C201.102 163.537 185.216 163.537 189.668 164.638C207.015 168.959 210.454 159.793 215.808 168.714C217.629 171.76 219.072 172.959 219.765 173.21C220.457 173.46 219.072 171.76 219.445 170.263C219.939 168.283 218.083 162.378 217.786 161.872C216.931 160.428 215.54 160.672 218.112 159.432C232.695 152.345 222.82 161.761 239.964 163.071C254.512 164.178 250.752 163.654 252.126 160.276C253.197 157.633 254.378 157.132 255.617 157.237C268.711 158.285 253.028 159.624 264.893 166.967C261.92 155.181 266.435 163.31 269.869 156.631C271.789 152.887 268.577 153.085 268.577 153.085C267.122 153.155 267.308 150.389 272.01 149.102C272.01 149.102 272.226 149.795 271.789 148.519C271.353 147.244 269.118 147.524 266.703 147.355C261.989 147.069 261.617 146.272 261.617 135.528C261.617 132.581 263.98 133.63 264.399 131.982C264.818 130.334 264.294 122.304 263.706 120.65C263.118 118.996 264.562 115.456 264.87 113.115C265.178 110.774 267.593 111.816 267.593 111.816C266.93 110.57 269.147 105.993 280.832 107.868C275.129 108.415 281.996 121.296 268.03 119.357C270.427 124.848 268.612 124.097 267.815 128.639C267.815 128.639 272.854 130.037 273.122 133.234C273.389 136.431 275.898 136.972 276.491 139.919C277.085 142.865 274.03 145.311 274.67 145.742C276.154 146.784 276.194 146.167 281.653 146.941C281.363 147.401 281.2 147.93 281.182 148.473C281.163 149.017 281.29 149.555 281.548 150.033C282.462 151.635 281.763 152.631 281.868 154.331C281.973 156.031 282.991 157.475 283.416 157.178C284.813 156.206 286.692 147.588 287.862 147.588C288.717 147.588 291.615 150.237 291.935 151.186C293.326 155.234 287.28 158.296 290.812 160.818C292.197 161.814 292.261 161.522 294.775 162.716C301.875 166.099 297.557 159.071 297.877 158.873C298.046 158.768 301.584 158.372 300.787 156.375C299.989 154.378 299.169 153.382 300.833 152.38C302.497 151.379 303.673 150.587 303.673 150.587C298.75 141.765 301.927 143.401 307.217 143.797C311.82 144.146 312.029 145.742 314.497 146.988C316.964 148.234 315.405 148.688 316.208 150.686C317.371 153.51 311.983 152.194 312.716 154.878C314.625 161.709 318.535 161.383 312.873 166.658C310.79 168.603 308.322 169.157 305.89 169.203C303.458 169.25 302.352 170.251 302.201 169.553C301.555 166.897 294.816 169.89 296.195 170.403C297.26 170.799 300.106 170.7 298.924 172.901C297.481 175.58 298.284 175.096 279.424 173.943C285.04 177.367 290.481 179.825 296.521 178.736C290.574 189.8 291.284 186.469 287.623 186.923C286.011 187.121 285.051 188.425 282.054 188.821C279.057 189.217 272.784 187.971 273.744 188.425C279.831 191.279 278.778 189.747 281.141 191.716C283.503 193.684 276.939 192.583 274.739 195.559C269.56 202.669 267.692 204.736 266.913 210.088C266.482 213.034 263.974 216.575 265.097 217.326C266.22 218.077 270.451 218.176 272.22 219.271C275.129 221.076 277.969 233.246 281.216 229.805C284.737 226.06 295.066 232.716 298.674 236.292C301.235 238.825 310.062 237.27 310.895 240.054C310.895 240.054 314.52 240.24 313.024 241.8C311.529 243.361 311.092 241.853 312.588 244.45C314.084 247.047 314.043 250.535 313.612 252.288C313.182 254.041 318.413 253.15 320.595 254.448C322.778 255.747 322.923 261.023 324.04 260.371C325.158 259.718 327.037 258.571 327.253 257.179C327.555 255.246 326.671 245.492 325.001 243C323.837 241.253 327.125 240.554 326.589 239.803C326.054 239.052 326.182 237.561 328.428 236.956C332.42 235.907 332.502 238.033 333.729 228.972C334.311 224.849 331.146 218.386 329.295 216.295C328.475 215.398 327.468 215.13 329.668 212.353C331.867 209.575 330.575 210.152 330.25 209.307C327.544 202.104 330.203 201.388 329.121 197.772C328.382 195.291 323.697 193.649 336.627 195.029C343.709 195.78 341.283 192.659 348.033 197.026C350.117 198.371 350.943 198.028 351.996 199.67C354.766 203.927 355.331 200.805 360.411 203.065C360.411 203.065 358.851 203.967 359.125 206.914C359.619 212.44 357.443 214.141 360.51 214.601C362.296 214.863 369.448 222.013 371.566 216.592C373.033 212.935 374.912 215.02 375.803 214.1C376.489 213.395 372.818 211.334 378.427 206.11C379.713 204.911 380.627 207.316 381.75 209.511C389.979 225.56 390.415 223.795 389.141 225.88C387.802 228.075 387.156 229.019 389.251 230.02C395.07 232.804 392.097 235.843 393.162 236.56C393.86 237.008 396.374 235.663 398.195 236.461C409.834 241.562 402.234 241.183 398.3 243.547C395.001 245.539 395.507 248.328 397.072 247.14C403.648 242.144 407.721 244.974 409.77 245.545C411.906 246.127 411.318 247.49 410.782 248.742C408.542 253.982 413.82 252.008 408.373 256.929C404.05 260.836 402.903 256.527 395.408 263.509C393.272 265.512 392.196 265.012 389.088 265.163C385.981 265.314 387.214 263.614 386.254 263.963C385.294 264.313 384.06 265.367 382.076 265.565C366.236 267.143 370.624 265.565 368.412 270.555C367.126 273.467 364.816 268.226 358.339 279.441C356.945 281.826 355.152 283.953 353.038 285.73C355.365 285.148 371.293 269.519 375.692 270.806C376.716 271.103 379.236 273.053 379.236 274.049C379.236 275.045 378.48 275.849 376.664 277.543C374.848 279.238 372.428 277.543 372.591 278.242C373.3 281.351 376.763 279.616 376.763 283.785C376.763 288.298 382.437 291.46 386.999 291.169C389.193 291.035 389.379 294.081 390.584 288.426C391.166 285.678 393.703 282.225 394.075 285.334C394.343 287.623 393.109 290.773 391.876 291.472C390.642 292.171 390.915 293.068 390.915 293.766C390.915 294.092 382.117 298.786 381.221 298.425C379.265 297.598 375.238 303.607 373.295 303.514C372.131 303.468 371.095 302.967 372.713 301.319C375.384 298.57 374.459 295.88 380.161 295.88C381.5 295.88 380.86 295.077 381.907 294.285C383.857 292.823 376.123 294.669 378.852 291.536C376.681 292.701 371.52 295.397 369.693 295.531C368.366 298.233 366.998 298.442 364.065 299.671C362.564 300.317 362.837 298.926 362.512 299.322C362.186 299.718 361.93 300.073 360.265 301.319C353.998 306.041 356.646 314.077 356.622 314.404C356.57 315.102 354.528 313.949 353.946 314.497C353.364 315.044 352.008 316.744 350.245 317.245C340.381 320.035 345.851 318.649 340.491 329.124C341.196 326.719 337.966 325.671 338.303 323.983C337.663 327.185 340.299 330.016 339.642 332.566C339.153 334.418 338.245 336.712 337.128 337.358C336.011 338.005 337.39 336.112 337.39 334.616C337.39 332.054 334.422 333.335 336.529 327.075C338.036 322.632 331.373 330.237 334.602 334.645C336.104 336.689 333.642 336.491 334.661 339.437C335.679 342.384 333.427 343.828 333.846 344.282C334.265 344.736 335.458 344.084 335.999 345.523C336.819 347.764 333.089 345.086 334.445 348.475C334.765 349.267 335.405 348.766 335.138 349.022C330.482 353.267 333.316 347.799 327.963 354.508C327.055 355.672 326.409 355.259 325.449 356.057C316.272 363.627 317.156 362.683 315.853 368.588C314.142 376.35 324.913 386.704 319.117 392.597C318 393.761 317.371 391.799 315.806 390.646C314.241 389.493 315.48 388.707 313.985 386.314C311.395 382.185 312.501 369.461 306.105 371.832C302.439 373.188 298.849 369.432 295.823 371.034C293.39 372.321 284.621 369.63 284.621 372.286C284.621 374.941 288.554 372.757 288.007 376.077C287.839 377.02 286.233 375.576 285.371 375.226C284.51 374.877 283.719 375.925 282.217 375.925C280.716 375.925 280.471 374.475 279.104 374.277C271.166 373.078 273.331 369.619 261.425 378.522C258.702 380.572 256.607 382.564 255.967 384.212C255.326 385.859 255.268 386.011 257.468 388.457C260.011 391.287 258.771 389.726 254.954 398.589C252.626 403.911 259.173 412.786 261.215 414.76C270.66 423.85 268.903 418.603 274.664 418.603C278.633 418.603 279.162 420.729 279.162 419.302C279.162 417.741 282.072 414.364 282.479 412.366C282.799 410.864 282.799 407.871 284.679 407.673C286.558 407.475 290.568 406.508 294.217 406.776C299.454 407.131 293.943 410.852 293.943 414.259C293.943 415.709 294.374 415.709 293.204 416.559C292.034 417.409 292.768 416.058 292.29 416.908C291.745 417.638 291.073 418.264 290.306 418.755C290.702 418.388 293.012 424.979 287.088 428.072C289.747 429.597 293.408 428.124 297.155 429.871C300.304 431.332 314.654 424.048 306.466 448.039C305.372 451.236 314.462 455.696 317.726 456.622C318.739 456.919 329.441 450.98 332.717 459.121C335.173 447.684 343.442 446.746 349.11 444.941C354.778 443.136 386.603 450.595 386.935 450.729C390.252 452.133 391.759 456.029 395.187 459.22C398.614 462.411 402.897 465.311 404.719 466.79C408.67 470.039 423.626 467.914 424.539 477.37C424.981 481.976 431.394 479.309 436.218 488.755C438.261 492.743 437.609 493.844 440.391 494.846C443.172 495.847 462.469 501.03 467.282 502.928C472.094 504.826 478.21 509.916 479.816 510.498C481.423 511.081 484.321 509.992 485.636 510.696C486.951 511.401 484.885 515.186 486.491 517.882C489.436 522.82 487.312 521.714 480.928 531.957C479.421 534.356 476.209 535.852 474.387 536.854C472.566 537.855 470.954 536.854 472.566 538.851C474.178 540.849 472.676 542.537 471.28 544.342C469.883 546.148 471.39 545.932 470.954 551.732C470.517 557.532 470.954 563.803 470.314 566.29C469.673 568.776 465.926 564.094 461.637 569.487C457.348 574.879 456.179 578.973 453.606 579.567C433.722 584.184 443.493 597.118 426.5 612.613C420.768 617.854 418.679 623.246 412.621 629.39C410.876 631.137 403.537 626.513 405.423 629.093C406.82 630.985 404.637 629.092 405.819 630.88C407 632.668 407.855 633.378 405.283 636.575C402.711 639.772 399.743 639.137 397.718 639.638C395.693 640.139 392.644 637.542 392.434 638.841C391.224 646.236 383.379 645.392 383.653 646.661C385.678 656.118 389.839 657.102 385.434 656.671C373.353 655.506 381.942 652.595 373.574 670.216C372.294 672.918 371.008 671.52 371.217 674.711C372.084 687.464 376.938 680.959 370.577 686.893C367.667 689.589 367.47 689.193 364.793 693.299C362.116 697.404 359.555 697.194 360.504 700.286C361.452 703.379 361.668 707.973 363.291 712.562C364.915 717.15 368.22 716.352 373.469 719.549C379.463 723.195 390.06 721.127 375.5 723.626C367.935 724.942 364.252 727.195 351.292 717.634C342.208 710.943 343.331 709.132 338.548 697.969C333.049 685.158 357.618 592.075 357.618 565.288C357.618 564.892 357.292 564.589 356.11 560.898C353.736 553.514 343.267 552.186 335.871 542.869C332.28 538.368 331.14 530.53 321.945 516.915C310.999 500.709 317.738 500.611 318.512 496.744C320.101 488.778 330.011 478.11 330.942 476.083C332.763 472.083 331.373 472.083 330.727 468.193C330.081 464.303 330.942 464.903 329.755 462.801C328.568 460.699 327.945 458.113 326.845 457.414C321.183 453.693 322.05 465.252 317.313 460.105C316.568 459.295 300.496 456.809 300.496 447.725C300.496 445.133 298.249 444.132 293.216 440.539C288.182 436.946 286.029 436.463 279.919 434.943C271.068 432.782 270.451 425.137 262.996 425.964C258.498 426.464 253.034 423.966 249.612 422.569C239.568 418.457 225.351 416.955 227.65 405.996C228.622 401.337 215.191 393.441 213.102 387.944C211.49 383.751 209.145 383.949 206.031 380.956C199.182 374.347 207.62 371.587 191.681 362.485C202.86 390.879 202.999 383.099 207.859 391.537C210.186 395.613 207.963 398.123 207.102 396.533C206.241 394.944 202.819 394.204 202.819 392.335C202.819 387.03 198.024 385.26 193.921 381.952C184.407 374.266 195.708 380.683 194.887 378.86C194.352 377.661 190.709 373.963 188.998 371.366C187.287 368.768 186.74 365.874 185.03 361.466C183.319 357.058 176.999 352.883 173.886 352.586C167.618 351.975 168.794 343.187 166.175 338.506C164.784 336.013 158.785 327.628 158.68 324.431C158.575 321.234 156.858 311.952 159 306.758C161.141 301.564 160.606 289.987 160.286 287.687C159.669 283.273 148.502 274.154 165.424 281.101C157.19 265.722 149.02 271.813 145.61 266.328C144.446 264.429 143.148 261.937 142.281 260.336C141.414 258.734 137.783 256.842 136.933 255.141C136.241 253.779 136.066 244.368 130.282 246.459C126.732 247.74 128.228 241.375 120.43 238.97C118.178 238.272 114.686 229.252 108.751 225.094C107.034 223.888 90.4315 218.502 90.0067 218.502C89.5819 218.502 84.7693 219.201 83.4716 218.805C79.6425 217.611 74.1608 208.871 70.6169 217.209C68.714 221.6 55.6089 230.527 56.3596 226.992C57.5526 221.478 57.1511 219.795 61.9287 217.407C64.9431 215.905 64.8383 215.806 63.6745 215.905C62.5106 216.004 61.6319 215.707 63.9945 214.315C70.5936 210.379 66.3513 209.657 58.8445 215.707C48.5502 224.005 50.2028 228.914 48.8819 230.585C35.5732 247.525 2.96199 257.896 7.41955 254.85C27.5833 241.049 25.983 249.65 36.7778 232.384C40.5836 226.293 34.0835 232.315 27.5659 229.886C25.9598 229.304 21.7815 231.779 20.2801 230.69C18.7788 229.601 20.3907 227.289 19.4189 226.189C18.0397 224.61 7.85599 227.283 7.85599 220.301C7.85599 214.24 2.8398 214.181 11.7084 208.224C17.871 204.061 28.3631 206.39 21.3509 198.534C21.3509 198.534 21.8863 198.138 23.1723 197.37C24.4584 196.601 23.4982 194.872 21.2403 195.169C18.9824 195.466 14.1699 197.772 11.173 198.564C8.17606 199.355 4.10839 198.866 4.18986 197.568C4.82416 189.939 -3.37519 195.536 10.7249 187.668C10.7249 187.668 13.0817 190.26 15.648 190.58C18.2143 190.9 23.6844 186.09 23.6844 186.09C20.2569 183.994 21.0076 183.394 21.0076 183.394C13.5182 183.26 12.9711 182.445 12.1157 178.701C11.7956 177.303 6.33136 176.203 7.83273 173.902C9.3341 171.602 12.1157 170.81 13.9371 168.516C15.7586 166.222 17.3647 161.924 22.6195 159.531C44.401 149.597 37.7962 151.961 42.1141 153.125C43.1848 153.428 49.8304 152.834 52.3967 152.834C54.963 152.834 55.3995 155.746 56.2549 156.421C57.7737 157.673 97.4088 157.702 102.751 159.222C106.592 160.288 113.575 163.2 113.575 163.2C117.805 162.658 117.433 157.516 120.052 157.516ZM377.665 41.7054C373.202 60.1764 334.707 52.152 348.307 67.6649C357.81 78.4727 357.507 74.6003 360.847 77.8496C363.175 80.1439 364.921 79.3403 371.322 79.4451C373.202 79.4451 397.101 80.738 400.36 83.6379C403.357 86.3166 414.821 113.703 414.821 114.192C414.821 114.984 412.354 121.279 412.354 122.274C412.354 123.27 413.64 124.971 414.821 126.351C416.782 128.68 413.459 129.262 416.642 135.138C416.858 135.534 420.064 131.941 422.107 131.341C424.149 130.741 429.177 134.94 429.177 137.834C429.177 144.397 430.964 142.16 420.285 149.911C418.877 150.936 417.504 158.797 418.54 162.588C422.34 176.075 433.78 192.018 434.182 192.74C438.145 199.92 434.135 201.312 452.39 205.417C460.025 207.129 458.116 207.898 466.007 182.358C471.431 164.725 461.422 175.993 489.034 163.689C491.502 162.588 491.071 154.704 496.535 152.106C505.316 147.943 514.173 147.727 526.318 139.127C531.678 135.336 533.173 137.333 535.105 133.839C537.037 130.345 533.173 125.25 532.778 120.062C532.382 114.873 534.494 114.57 535.559 109.877C538.958 95.0803 548.653 97.4679 547.029 90.911C546.273 87.9121 544.119 83.4224 544.119 80.1265C544.119 71.287 539.959 72.9 543.037 64.6544C544.655 60.3569 548.938 61.4633 548.618 59.5591C548.298 57.6549 541.757 54.7666 541.635 49.4792C541.413 38.6307 547.489 40.2902 556.631 30.5073C557.382 29.7095 556.421 27.5143 561.775 24.9172C567.129 22.3201 568.956 20.6255 570.987 19.8277C573.018 19.03 576.224 19.1289 570.021 17.3296C552.691 12.3217 558.249 17.5159 545.58 18.7329C538.294 19.4259 530.043 22.8091 530.043 22.8091C530.043 22.8091 532.51 20.6139 530.368 18.5117C528.227 16.4096 535.938 9.53238 537.229 8.72879C539.359 7.40693 494.097 -4.02975 477.442 1.44402C474.119 2.53877 474.533 6.83632 470.802 7.04013C467.072 7.24394 460.089 4.83889 454.73 5.63666C449.37 6.43443 440.798 10.1322 439.838 10.3302C438.878 10.5281 443.161 13.1253 445.948 13.7251C448.736 14.3249 452.35 20.1306 452.35 20.1306C419.663 9.22962 420.495 18.5349 404.247 19.3269C395.804 19.7345 389.327 27.0484 370.071 37.3787C365.957 39.6788 371.223 40.7038 377.665 41.7054ZM217.74 130.893C215.744 128.633 214.103 124.039 210.89 125.896C207.678 127.754 204.175 127.236 204.745 126.834C205.316 126.432 204.675 124.435 203.029 123.841C201.382 123.247 200.392 124.173 198.682 125.174C196.971 126.176 191.536 127.504 193.747 125.757C195.958 124.01 195.248 123.095 194.463 121.098C193.677 119.101 188.061 122.496 185.03 124.627C181.998 126.758 180.252 130.013 178.46 132.197C173.676 138.084 190.989 136.739 184.104 139.255C180.467 140.582 177.674 141.514 179.536 142.65C184.558 145.707 190.628 141.485 198.891 143.715C204.035 145.107 207.102 145.043 207.102 145.043C201.952 148.246 178.39 146.895 181.817 150.097C189.609 157.411 192.996 154.441 196.366 155.286C199.013 155.956 197.582 158.949 198.298 159.42C199.013 159.892 204.012 159.019 209.011 158.087C214.01 157.155 212.153 156.34 216.087 155.356C220.021 154.372 220.161 151.367 222.436 150.697C224.711 150.028 223.082 152.229 225.794 152.893C226.824 153.149 233.405 155.746 235.151 155.624C238.008 155.426 241.36 153.498 240.935 153.16C239.108 151.74 242.483 147.96 236.367 151.565C235.203 152.229 235.296 149.766 237.717 148.566C240.138 147.366 242.303 148.566 243.723 148.566C245.143 148.566 243.868 144.437 241.29 143.779C238.712 143.121 237.583 141.514 233.725 139.389C229.867 137.263 231.869 136.326 230.728 133.531C229.588 130.736 227.155 122.467 225.008 121.017C222.861 119.567 220.585 119.951 218.444 118.489C217.972 120.889 221.179 134.783 217.74 130.893ZM159.605 118.583C160.542 121.244 160.676 119.578 158.82 122.507C156.963 125.436 158.034 126.502 156.748 128.697C155.462 130.893 152.04 133.828 153.105 135.289C154.17 136.751 157.603 137.618 159.035 138.748C162.753 141.66 161.677 143.116 169.678 138.946C171.465 138.014 172.966 136.949 172.891 134.619C172.704 128.022 174.811 133.985 175.887 131.091C176.501 129.35 177.448 127.746 178.675 126.368C179.018 126.036 188.853 120.58 190.244 118.454C191.035 117.243 188.812 116.323 187.462 115.782C186.112 115.24 184.552 113.126 181.393 113.126C178.233 113.126 176.533 115.52 176.679 114.454C176.865 113.068 170.144 109.737 157.673 113.324C154.892 114.122 158.68 115.916 159.605 118.583ZM252.603 150.464C252.178 151.047 250.316 151.629 249.175 152.992C248.035 154.354 251.602 153.574 252.743 153.987C253.883 154.401 254.744 155.513 255.652 155.857C258.632 156.91 266.534 155.356 265.725 153.591C265.51 153.12 261.442 149.137 258.44 147.53C252.981 144.618 255.326 146.633 252.603 150.464ZM239.096 119.316C237.164 120.283 235.75 121.442 239.032 123.107C248.675 127.987 247.936 133.269 253.389 131.161C258.044 129.367 259.889 127.236 260.535 125.372C261.181 123.509 259.889 123.107 258.748 121.372C256.42 117.878 256.217 119.444 251.817 119.444C252.965 118.09 254.374 116.98 255.961 116.183C258.533 114.92 256.385 114.052 257.596 112.858C258.806 111.665 254.529 111.059 252.679 111.525C250.828 111.991 250.747 111.391 247.674 111.257C244.601 111.123 239.748 113.924 239.958 114.92C240.167 115.916 242.46 115.502 244.613 116.719C246.766 117.936 247.401 117.785 245.253 121.174C242.507 125.518 242.181 117.779 239.096 119.316ZM222.319 116.055C223.53 116.387 224.315 115.718 226.242 117.802C228.168 119.887 229.89 120.993 230.67 117.604C232.672 108.951 218.263 114.937 222.319 116.032V116.055ZM173.816 87.4286C170.237 90.2936 169.533 92.5589 166.751 94.3583C163.079 96.6875 164.575 101.032 170.534 97.9511C171.82 97.2815 172.861 95.6218 173.676 96.6234C174.84 98.0734 180.811 88.4711 182.679 88.8321C183.039 88.902 181.457 90.579 182.038 91.9591C182.62 93.3392 185.175 93.4266 187.462 91.0333C189.749 88.64 187.677 86.4329 189.464 84.5753C191.25 82.7178 192.746 82.9741 189.254 81.3086C185.763 79.6432 183.534 81.5124 182.818 82.38C182.102 83.2477 180.822 81.8384 173.816 87.4286ZM183.749 101.148C182.37 104.747 193.532 106.971 195.528 101.212C196.534 98.3471 197.75 101.876 197.18 103.343C196.36 105.446 200.52 101.876 206.031 101.876C206.497 101.876 200.672 106.313 192.531 107.466C191.6 107.6 193.398 108.998 197.314 109.795C201.492 110.64 212.398 102.097 216.459 103.268C218.322 103.798 220.318 102.336 222.605 101.8C224.892 101.265 225.817 102.138 226.824 98.7373C227.83 95.3366 229.599 92.0872 226.387 91.8834C223.175 91.6796 222.96 91.6854 222.535 95.3482C222.139 98.7023 222.773 97.5727 218.386 91.8834C217.105 90.2238 216.174 87.6267 214.749 86.2292C213.323 84.8316 212.677 86.8115 210.46 89.2922C208.243 91.7728 210.029 92.6812 212.246 93.7468C214.463 94.8125 216.035 97.5435 214.964 98.2714C213.893 98.9993 212.677 98.1434 208.603 98.6092C204.53 99.0751 204.675 97.3455 203.535 96.8098C202.394 96.2741 205.461 95.1502 201.097 93.3509C192.612 89.8279 186.653 93.4789 183.749 101.148ZM182.388 95.424C182.842 94.6495 176.97 98.8828 176.074 100.245C175.178 101.608 176.97 101.375 178.751 101.311C180.531 101.247 180.898 97.9803 182.388 95.424ZM193.677 86.6018C189.807 88.3487 199.211 88.8496 197.89 86.235C197.372 85.2334 194.858 86.0661 193.677 86.6018ZM199.386 76.6443C199.135 77.4479 199.432 79.1773 200.142 80.5458C201.795 83.6961 213.026 78.2164 210.524 77.5468C205.333 76.1143 206.45 76.19 210.89 74.7866C218.968 72.2535 200.398 73.5231 199.386 76.6443ZM192.321 76.062C189.475 77.3722 198.344 79.0142 197.71 77.5934C197.372 76.8422 195.498 74.5829 192.321 76.0503V76.062ZM201.533 69.5109C199.298 70.3902 198.786 72.0032 198.286 72.6321C197.785 73.261 200.817 72.1721 202.208 71.8344C203.599 71.4966 203.954 72.3292 205.286 71.1355C206.619 69.9417 209.319 71.1705 211.752 70.6348C214.894 69.9418 218.543 62.7677 201.533 69.4993V69.5109ZM227.819 79.5209C230.996 80.7438 230.589 82.6129 231.496 80.4583C231.997 79.253 231.246 79.4568 229.89 77.8612C224.752 71.776 224.007 78.0418 227.819 79.5092V79.5209ZM230.42 86.8755C229.745 87.2132 230.781 87.9761 231.246 89.4028C231.712 90.8294 231.316 91.3069 234.028 91.5048C241.209 92.0173 237.141 83.6145 230.42 86.8638V86.8755ZM244.532 89.1116C242.85 87.8771 242.029 86.8754 240.318 87.58C238.608 88.2846 240.028 89.1406 240.028 89.6123C240.028 90.084 242.105 89.5425 242.14 90.6722C242.233 93.8866 238.526 91.3768 236.175 93.1703C235.215 93.8982 238.031 93.0714 238.893 94.201C240.103 95.8024 241.802 95.4181 249.245 94.201C246.813 96.5303 244.898 99.2671 247.028 100.688C248.279 101.527 248.425 99.8262 251.887 99.7563C255.35 99.6865 256.385 97.893 256.385 97.893C255.222 96.7283 255.99 94.1369 255.67 93.2693C257.829 94.8066 257.724 95.8257 256.636 91.767C255.437 87.3006 256.991 84.1444 252.958 84.2434C250.351 84.3191 248.564 85.216 246.417 85.216C244.27 85.216 243.345 85.6118 244.922 86.4154C249.338 88.6457 247.645 93.2402 248.105 92.0348C248.134 91.9242 244.508 89.1 244.508 89.1L244.532 89.1116ZM229.85 101.224C229.78 102.091 231.281 101.585 233.679 100.758C238.136 99.1857 230.304 95.8898 229.85 101.212V101.224ZM260.494 97.893C259.33 99.1915 260.354 99.3545 263.316 100.857C276.695 107.6 271.754 85.0878 260.494 97.8813V97.893ZM278.993 82.4558C271.126 83.2361 271.702 80.3536 260.564 80.3536C259.062 80.3536 259.766 81.0524 261.32 83.6029C265.516 90.4917 270.049 81.5649 274.705 88.2906C277.032 91.6855 278.295 92.7394 276.363 93.9855C274.431 95.2317 275.339 97.2232 276.468 99.8087C277.597 102.394 280.163 102.301 283.759 102.301C318.919 102.301 315.102 101.381 322.167 96.3148C327.864 92.2386 318.279 88.3254 313.379 88.3254C310.47 88.3254 308.02 89.822 303.626 90.2704C299.233 90.7188 300.205 92.821 296.236 92.92C292.267 93.019 294.199 94.7659 289.323 92.7686C274.268 86.5902 288.973 88.6923 286.058 86.1825C284.772 85.082 282.526 82.0889 278.993 82.4441V82.4558ZM233.568 63.8857C235.896 64.6834 236.518 65.2833 233.888 65.9762C231.258 66.6692 229.233 68.521 231.851 68.1716C234.47 67.8222 236.728 68.4219 240.097 68.9751C246.679 70.0407 244.06 73.855 250.124 72.4225C252.452 71.8402 252.743 71.7179 251.247 70.0932C250.95 69.7613 245.108 61.0323 240.371 61.5156C234.226 62.0979 238.963 56.5892 230.35 58.7613C227.784 59.4135 226.957 61.2479 225.962 62.0631C223.926 63.6761 231.211 63.0704 233.568 63.874V63.8857ZM264.41 39.4284C255.798 50.2187 266.738 44.4421 267.32 46.9694C267.535 47.9593 266.785 48.664 262.083 48.664C257.381 48.664 258.818 49.7121 261.442 52.8042C265.516 57.5792 272.179 52.8043 277.032 54.0621C287.722 56.7931 266.75 57.8122 269.904 60.7412C279.796 69.9593 279.628 64.4797 286.349 65.2367C291.225 65.7841 290.05 66.2848 290.58 64.9397C291.109 63.5946 293.798 60.1472 294.327 58.8952C295.695 55.739 305.32 55.8381 299.902 53.9049C297.394 53.0023 294.548 52.6062 294.816 51.9074C295.084 51.2086 296.637 49.1648 295.561 48.1108C294.484 47.0569 292.779 47.115 291.383 46.5676C289.986 46.0202 288.438 43.4756 286.669 42.375C284.9 41.2744 283.352 41.1755 281.205 39.5275C272.871 33.1162 270.881 31.2935 264.428 39.4109L264.41 39.4284ZM258.934 68.6316C257.869 69.179 255.193 69.278 257.189 70.9259C259.185 72.5739 258.632 72.6263 261.146 71.6771C263.66 70.728 267.308 68.3753 267.634 67.6824C268.082 66.6924 256.892 62.0631 255.897 61.7894C250.06 60.1764 260.028 68.0609 258.952 68.6141L258.934 68.6316ZM390.002 16.7006C385.573 15.5011 369.722 12.4381 364.577 13.6377C359.433 14.8372 359.718 10.9765 352.578 11.8907C345.438 12.805 334.439 12.2867 331.012 12.8225C327.584 13.3582 332.717 14.8198 334.579 16.0194C336.441 17.219 325.722 14.6859 317.575 16.9511C309.428 19.2164 304.15 20.41 312.873 23.7351C336.947 32.9356 308.887 24.9346 306.868 24.1368C302.154 22.2734 304.726 22.3899 295.863 24.9347C287.001 27.4794 278.441 28.8012 278.871 31.4566C279.372 34.6069 290.545 42.3692 304.726 37.0469C305.436 36.7848 301.153 40.6455 301.153 40.6455C314.887 37.8388 329.289 32.3883 330.581 31.5905C321.113 38.9218 311.378 43.8191 299.297 44.2384C290.166 44.5761 309.277 52.7693 310.156 59.1457C310.156 59.1457 304.581 54.755 298.441 59.1457C285.674 68.2589 300.845 65.7607 302.719 69.2604C303.725 71.1238 310.866 67.5135 310.866 67.5135C303.725 76.5743 301.188 69.0451 295.578 69.6449C290.58 70.1748 290.865 71.3918 293.012 73.1038C299.355 78.2514 287.92 76.4579 287.583 81.4949C287.367 84.6685 298.43 83.4223 307.438 83.2418C313.147 83.1021 312.437 81.2445 314.578 81.2445C316.72 81.2445 318.867 81.9084 318.012 84.0338C317.156 86.1593 318.861 84.8374 325.152 82.578C331.442 80.3187 328.574 76.8422 328.155 75.6542C327.736 74.4663 325.437 74.0529 324.011 73.3891C322.586 72.7253 328.294 66.8613 327.433 64.8756C326.572 62.8899 334.416 64.468 338.007 59.8095C341.597 55.1509 340.294 51.692 337.721 50.8942C335.149 50.0964 342.441 50.6321 344.705 49.2928C346.968 47.9535 351.996 46.3813 354.015 43.8366C356.035 41.2919 356.727 40.3718 351.874 40.925C347.021 41.4782 358.857 38.7937 364.583 35.0611C384.689 21.9531 379.312 25.4412 374.296 25.744C367.586 26.14 359.579 25.2141 364.013 24.6842C368.447 24.1543 381.587 22.5529 385.015 20.0256C386.598 18.7888 388.271 17.6716 390.019 16.6832L390.002 16.7006ZM310.028 109.044C302.882 108.375 292.459 106.651 290.312 112.771C288.165 118.891 284.888 132.482 284.603 135.004C283.812 142.062 316.72 143.104 313.461 140.728C308.224 136.908 325.169 140.984 325.169 136.337C325.169 135.138 326.17 137.793 330.168 139.924C334.166 142.056 337.599 148.077 341.172 151.512C344.745 154.948 352.741 159.624 351.17 162.297C349.599 164.97 352.881 174.275 340.59 176.406C328.3 178.538 327.596 177.065 327.741 179.865C328.224 189.398 343.931 178.648 347.166 182.777C352.124 189.107 360.271 186.422 351.024 189.701C349.86 190.097 353.457 190.493 360.452 193.824C367.446 197.154 375.878 197.55 371.735 195.157C367.592 192.764 365.596 188.367 363.739 186.9C361.883 185.432 363.594 186.632 366.882 187.436C375.07 189.421 375.413 197.876 377.735 187.028C378.736 182.369 377.31 182.369 371.735 178.648C357.187 168.9 367.08 165.68 368.168 164.265C369.599 162.408 373.597 167.596 376.315 170.671C379.032 173.745 381.308 179.056 383.455 175.195C385.602 171.335 387.587 162.687 387.587 160.684C387.587 158.681 385.451 160.818 376.315 156.293C367.179 151.769 362.453 150.039 361.598 150.039C360.743 150.039 364.025 148.292 367.999 146.312C371.974 144.333 373.708 144.566 365.136 136.46C356.564 128.354 354.138 126.613 348.569 126.077C343 125.541 341.428 119.672 337.425 117.692C333.421 115.712 324.139 120.085 321.422 120.755C318.704 121.424 319.565 122.501 316.138 117.563C312.71 112.625 310.028 109.044 310.028 109.044ZM316.429 109.044C312.879 109.469 318.576 115.962 323.144 116.236C327.712 116.51 331.57 114.238 332.571 113.971C333.572 113.703 322.027 108.392 316.452 109.044H316.429ZM300.397 175.067C297.72 181.572 298.913 181.851 296.969 188.047C296.44 189.741 298.686 187.75 300.187 190.242C301.689 192.735 301.037 193.439 303.719 190.545C306.402 187.651 309.399 186.649 313.141 187.849C325.361 191.756 314.02 183.371 312.931 182.061C310.359 178.963 308.433 178.171 305.221 176.965C302.009 175.76 301.7 171.992 300.42 175.085L300.397 175.067ZM305.779 403.137C303.207 404.004 308.177 404.424 311.482 403.137C314.788 401.85 317.302 402.857 317.756 403.451C318.209 404.045 316.638 404.406 316.08 403.777C315.521 403.148 315.405 405.326 319.141 406.689C326.519 409.356 322.94 410.282 325.35 414.079C326.205 415.418 326.514 415.983 324.954 416.571C322.51 417.491 328.888 419.727 331.844 419.971C335.109 420.251 336.191 420.857 333.921 417.869C324.262 405.117 324.896 396.708 305.803 403.154L305.779 403.137ZM337.727 422.936C339.537 424.793 339.013 426.808 338.891 427.874C338.682 429.62 325.268 424.024 333.31 428.363C336.424 430.051 338.443 429.638 338.303 431.857C338.164 434.075 341.166 432.066 342.493 430.762C343.82 429.457 343.727 430.616 349.267 431.449C354.807 432.282 355.942 433.289 355.086 430.867C354.231 428.444 357.623 428.636 352.7 426.313C347.777 423.99 335.696 420.845 337.751 422.959L337.727 422.936ZM321.957 424.321C317.75 419.663 314.776 424.601 319.868 426.028C321.835 426.587 323.313 425.824 321.98 424.345L321.957 424.321ZM362.191 434.337C359.928 433.557 359.462 435.263 360.969 436.667C362.477 438.07 374.639 438.635 362.215 434.36L362.191 434.337ZM336.127 155.746C333.124 157.015 331.361 157.889 333.986 161.336C336.61 164.783 338.17 166.926 339.176 164.434C340.183 161.942 341.236 153.62 336.15 155.769L336.127 155.746ZM312.082 192.705C307.554 193.433 306.07 193.567 306.792 196.1C308.323 201.446 320.485 191.372 312.105 192.729L312.082 192.705ZM321.503 196.56C319.577 197.143 322.085 204.911 325.292 197.725C326.17 195.809 324.384 195.716 321.526 196.584L321.503 196.56ZM272.074 73.6919C267.797 73.8375 261.361 75.3515 264.934 75.4389C270.701 75.5495 283.428 77.9253 283.719 72.3759C283.887 69.5982 279.959 73.4532 272.098 73.7211L272.074 73.6919ZM245.306 50.2013C240.935 51.5581 242.018 52.4607 247.156 54.7259C252.295 56.9911 252.446 55.9196 251.876 51.6629C251.305 47.4062 247.889 49.4268 245.317 50.2304L245.306 50.2013ZM550.62 161.604C545.208 163.118 543.392 162.186 542.368 164.958C541.344 167.73 539.22 166.233 537.997 166.571C536.775 166.909 535.041 174.572 534.186 173.437C530.787 168.959 531.934 166.589 529.798 164.12C527.424 161.342 522.716 161.662 522.384 162.798C522.053 163.933 525.632 164.888 524.415 166.169C522.46 168.231 513.865 172.231 523.321 170.013C525.346 169.535 526.731 171.532 527.564 172.924C528.396 174.316 526.633 175.719 525.76 176.418C523.793 177.985 534.675 175.253 531.515 180.523C530.467 182.27 536.054 180.768 539.15 180.593C542.246 180.419 543.049 182.713 547.722 181.245C552.394 179.778 554.623 179.883 558.877 176.733C567.408 170.414 567.606 172.767 567.897 167.363C568.013 165.115 569.765 167.998 569.102 164.597C568.438 161.196 564.952 162.116 562.514 161.854C560.076 161.592 560.186 159.676 558.941 159.071C557.696 158.465 556.119 160.102 550.631 161.633L550.62 161.604ZM912.229 454.852C911.065 458.841 910.152 470.19 916.157 467.401C920.475 465.398 918.659 462.579 915.267 456.785C914.388 455.289 912.671 453.356 912.241 454.881L912.229 454.852ZM910.92 452.383C911.217 453.67 912.927 454.247 911.956 452.884C911.455 452.185 911.513 452.104 911.513 452.104C911.513 452.104 910.879 451.888 910.879 452.517M1065.15 558.627C1064.46 560.956 1057.13 561.655 1054.33 562.522C1049.19 564.112 1040.29 569.306 1039.65 571.606C1039.21 573.208 1039.86 575.543 1037.29 572.189C1034.49 577.831 1037.77 579.759 1037.62 584.674C1037.51 587.865 1036.33 589.763 1036.45 591.958C1036.59 594.87 1042.48 600.291 1043.3 607.541C1043.84 612.2 1046.31 614.82 1043.84 617.318C1041.37 619.816 1039.55 619.31 1042.55 621.907C1052.55 630.56 1054.94 619.525 1067.84 618.716C1078.71 618.046 1071.12 616.159 1078.01 612.724C1081.23 611.128 1080.92 610.726 1083.05 610.33C1085.18 609.934 1086.59 611.431 1089.46 609.131C1092.32 606.831 1090.21 606.633 1096.64 606.633C1102.02 606.633 1112.38 608.211 1115.26 612.724C1118.92 618.372 1117.45 616.218 1126.19 610.132C1125.82 615.548 1124.04 613.923 1124.04 618.023C1124.04 618.605 1126.51 616.119 1126.83 616.025C1127.16 615.932 1127.47 620.416 1127.79 620.812C1128.11 621.208 1129.08 621.01 1130.04 622.309C1133.34 626.728 1134.93 631.573 1140.87 632.487C1150.76 634.054 1148.83 629.43 1151.69 630.7C1153.72 631.597 1151.58 633.489 1156.4 633.093C1161.22 632.697 1162.51 631.096 1164.44 629.797C1166.36 628.499 1166.58 631.597 1169.05 628.202C1171.51 624.807 1171.95 625.604 1172.36 621.511C1173.56 610.08 1177.34 612.834 1179.54 605.043C1182.81 593.443 1184 592.232 1182 582.373C1180.93 577.08 1181.68 577.715 1178.26 575.49C1174.83 573.266 1173.97 573.889 1173.11 570.797C1172.25 567.705 1173.33 566.797 1171.72 566.797C1170.1 566.797 1168.72 567.495 1167.76 565.405C1164.09 557.439 1163.84 559.943 1158.22 557.421C1154.9 555.919 1156.61 555.523 1156.61 552.926C1156.61 550.329 1156.8 547.568 1154.15 546.369C1151.5 545.169 1153.08 547.033 1153.08 542.77C1153.08 533.29 1150.21 546.118 1142.94 526.541C1142.02 524.06 1138.58 530.978 1138.58 534.653C1138.58 539.311 1142.55 542.106 1135.79 551.097C1133.47 554.195 1130.23 548.296 1127.51 546.969C1124.8 545.641 1119.8 544.441 1117.51 542.374C1115.22 540.307 1116.79 540.243 1117.51 538.112C1119.74 531.473 1124.77 532.382 1120.01 529.726C1117.68 528.416 1105.34 527.176 1105.65 530.262C1105.87 532.329 1107.98 533.121 1104.95 532.527C1092.45 530.076 1096.75 541.903 1094.37 541.903C1089.9 541.903 1086.04 535.829 1081.66 539.917C1065.61 554.9 1069.17 546.043 1065.16 558.656L1065.15 558.627ZM969.834 468.647C968.321 468.438 967.506 468.065 969.328 470.435C976.311 479.443 975.45 472.694 977.265 476.957C978.621 480.154 978.121 480.224 979.477 481.417C980.833 482.611 981.979 482.955 982.328 484.154C984.411 491.142 985.063 486.297 987.187 492.266C991.063 503.056 993.891 501.694 997.115 505.845C999.187 508.507 1002.69 512.367 1003.26 511.302C1004.48 509.019 1006.67 515.029 1008.54 505.246C1009.96 497.879 1004.44 498.503 1003.55 497.058C1003.05 496.266 1002.2 493.535 1000.98 492.668C999.763 491.8 999.472 492.732 999.472 490.606C999.472 487.112 1001.91 490.408 996.562 484.818C996.254 484.486 988.182 481.47 983.928 477.248C976.427 469.812 978.388 469.789 969.846 468.676L969.834 468.647ZM1011.4 511.576C1009.69 511.576 1008.83 510.574 1007.69 512.635C1006.54 514.697 1006.69 514.702 1008.47 514.702C1010.26 514.702 1009.9 515.634 1009.83 515.896C1009.73 516.315 1016.51 519.279 1019.83 517.492C1020.83 516.962 1021.19 518.825 1026.19 519.623C1031.19 520.421 1033.83 519.163 1037.04 519.955C1042.99 521.428 1035.68 515.133 1025.83 513.369C1024.33 513.101 1027.11 514.965 1022.55 514.365C1017.99 513.765 1019.64 514.767 1017.26 513.235C1014.88 511.704 1014.9 511.442 1013.33 511.174C1011.76 510.906 1011.41 511.605 1011.41 511.605L1011.4 511.576ZM1047.68 518.889C1038.22 521.842 1055.4 521.457 1056.61 519.472C1057.11 518.674 1055.97 519.21 1054.39 518.738C1052.82 518.266 1052.97 519.07 1050.82 519.32C1048.67 519.571 1047.7 518.919 1047.7 518.919L1047.68 518.889ZM1060.98 518.622C1055.67 519.274 1063.67 521.201 1066.11 520.555C1069.77 519.588 1065.18 520.008 1076.54 518.622C1080.81 518.115 1077.48 517.946 1077.04 517.964C1069.47 518.295 1069.08 519.437 1067.82 519.361C1067.18 519.349 1062.64 518.453 1060.99 518.651L1060.98 518.622ZM1075.26 521.882C1072.25 523.216 1074.13 524.835 1073.29 525.854C1075.01 525.692 1076.63 524.944 1077.87 523.734C1081.66 519.914 1081.98 522.261 1086.31 518.097C1083.31 518.75 1081.5 517.486 1078.86 519.687C1078.31 520.194 1079.43 520.322 1075.27 521.906L1075.26 521.882ZM1056.52 522.61C1056.4 523.431 1054.92 523.385 1057.54 524.357C1060.17 525.33 1062.66 526.605 1062.47 525.277C1062.17 523.117 1056.84 520.84 1056.54 522.64L1056.52 522.61ZM1043.26 467.442C1042.19 468.973 1044.26 468.577 1042.68 469.911C1041.1 471.244 1039.9 470.639 1038.33 472.63C1034.88 477.027 1023.14 480.462 1028.25 483.287C1027.17 483.782 1022.88 482.372 1022.68 480.888C1021.15 480.829 1017.88 485.284 1020.32 487.479C1021.97 488.941 1019.16 489.005 1019.54 490.007C1019.91 491.008 1019.9 492.872 1020.89 493.07C1021.88 493.268 1022.11 492.138 1023.33 493.652C1024.55 495.166 1023.54 499.504 1025.11 499.708C1026.68 499.912 1027.82 499.242 1029.18 499.836C1033.07 501.583 1034.67 499.021 1037.97 500.902C1038.9 501.437 1042.25 502.567 1043.9 502.433C1045.55 502.299 1045.83 502.707 1046.11 500.372C1047.2 491.556 1050.05 494.659 1050.4 490.589C1051.19 481.633 1053.71 486.42 1054.33 485.127C1054.95 483.834 1055.62 483.805 1055.26 483.135C1054.89 482.466 1053.04 482.466 1052.35 481.202C1051.65 479.938 1052.57 479.269 1051.7 476.677C1050.83 474.086 1050.35 475.082 1051.56 473.614C1052.77 472.147 1053.78 471.867 1053.92 470.755C1054.06 469.643 1054.56 469.55 1056.06 468.49C1057.57 467.43 1055.83 467.908 1054.39 466.859C1049.59 463.307 1050.17 457.577 1043.27 467.471L1043.26 467.442ZM1254.31 608.741C1252.63 607.518 1254.25 611.652 1257.31 611.868C1258.66 611.955 1258.24 615.268 1261.39 618.593C1262.47 626.065 1260.13 625.814 1259.53 628.644C1258.95 631.212 1264.25 628.79 1263.02 632.371C1262.52 633.838 1261.02 634.502 1261.02 634.77C1261.02 635.038 1263.93 636.698 1265.45 634.898C1272.8 626.053 1268.5 627.654 1270.88 626.047C1274.02 623.922 1276.28 620.317 1274.73 619.123C1272.88 617.708 1271.97 622.507 1267.66 620.387C1264.17 618.692 1266.29 618.605 1264.02 616.258C1264.02 616.258 1263.59 618.523 1262.52 617.796C1261.46 617.068 1261.73 616.258 1260.95 614.995C1258.67 611.344 1259.88 609.701 1257.09 609.404C1254.62 609.172 1254.97 609.253 1254.32 608.77L1254.31 608.741ZM1254.74 632.907C1251.97 635.362 1249.78 638.408 1248.34 641.822C1246.88 645.228 1238.75 647.319 1236.41 650.743C1231.32 658.203 1227.47 659.396 1235.13 659.396C1237.63 659.396 1241.53 661.656 1243.69 659.326C1245.86 656.997 1247.98 651.471 1249.34 649.479C1250.79 647.337 1259.81 640.448 1259.81 637.891C1259.81 636.5 1258.89 634.234 1258.89 634.234C1258.63 634.691 1258.24 635.061 1257.76 635.298C1257.29 635.535 1256.76 635.629 1256.24 635.568C1254.4 635.399 1254.73 632.936 1254.73 632.936L1254.74 632.907ZM1237.9 658.47C1235.39 657.143 1234.9 659.635 1234.49 662.156C1234.09 664.678 1235.58 662.541 1237.76 661.394C1239.94 660.246 1238.86 659.012 1237.91 658.5L1237.9 658.47ZM1152.94 641.001C1147.96 639.341 1151.86 655.14 1159.73 651.518C1161.31 650.778 1166.71 643.08 1166.01 639.603C1165.72 638.206 1163.73 640.867 1162.43 641.467C1155.71 644.681 1155.64 641.944 1152.98 641.053L1152.94 641.001ZM1117.4 498.153C1111.7 499.487 1114.38 486.408 1104.11 490.164C1099.39 491.911 1100.12 491.497 1103.25 492.697C1106.39 493.896 1106.83 494.292 1107.25 494.292C1107.67 494.292 1112.25 494.962 1111.25 495.626C1110.25 496.29 1105.97 496.954 1108.68 498.817C1111.39 500.68 1110.25 499.353 1117.41 502.946C1124.57 506.538 1125.7 503.883 1127.98 508.536C1130.27 513.189 1130.27 512.397 1128.41 513.602C1124.34 516.228 1121.98 516.327 1132.84 516.927C1137.7 517.189 1133.12 519.984 1138.55 519.984C1143.97 519.984 1145.41 518.237 1147.55 515.727C1149.69 513.218 1150.12 514.528 1154.69 515.593C1159.26 516.659 1160.83 520.654 1166.55 522.249C1172.26 523.845 1174.7 525.976 1171.12 522.651C1144.93 498.194 1158.55 501.443 1127.55 492.831C1120.83 490.967 1119.69 497.623 1117.4 498.153ZM1075.81 484.434C1074.21 483.438 1074.65 486.507 1071.1 484.847C1067.55 483.188 1066.21 482.355 1062.37 485.179C1058.53 488.003 1060.95 489.156 1060.85 491.148C1060.66 495.341 1054.1 501.781 1056.23 504.995C1057.11 506.311 1058.37 505.816 1058.9 506.48C1061.23 509.392 1054.3 517.416 1062.01 515.681C1064.24 515.186 1062.28 515.023 1062.28 513.2C1062.28 510.871 1063.34 512.985 1063.34 502.177C1064.8 501.397 1066.2 506.48 1067.71 509.054C1069.56 512.187 1070.22 511.966 1074.11 508.309C1068.34 506.515 1073.53 506.358 1070.37 501.263C1068.33 497.944 1067.27 497.769 1069.84 497.612C1073.53 497.373 1071.36 492.906 1077.5 493.634C1073.67 489.669 1064.11 498.724 1063.34 494.543C1061.57 484.556 1065.27 488.97 1068.69 487.998C1075.99 485.89 1081.03 492.278 1085.4 480.427C1077.44 487.136 1078.33 485.983 1075.83 484.434H1075.81ZM1091.83 477.592C1092.28 476.765 1088.11 480.445 1087.33 481.185C1086.55 481.924 1087.33 482.978 1087.91 484.049C1089.61 487.2 1086.3 489.517 1090.92 491.101C1090.92 491.101 1090.85 488.638 1091.63 487.508C1092.52 486.227 1090.54 479.979 1091.84 477.592H1091.83ZM1079.11 500.727C1079.11 502.439 1078.75 503.295 1082.24 503.295C1093.76 503.272 1079.13 495.352 1079.13 500.727H1079.11ZM1088.95 502.695C1089.4 504.238 1089.96 503.214 1091.8 502.87C1094.46 502.369 1092.96 498.846 1102.73 502.526C1105.8 498.922 1086.18 493.448 1088.96 502.689L1088.95 502.695ZM1024.8 413.665C1018.55 413.84 1021.96 413.45 1018.55 415.528C1017.72 416.023 1017.73 416.693 1018.3 418.015C1018.88 419.337 1019.83 419.383 1021.44 419.82C1023.05 420.257 1022.48 419.121 1023.66 418.655C1025.47 417.992 1024.38 417.159 1026.73 414.463C1027.01 414.131 1025.8 413.001 1025.8 412.896C1025.45 413.122 1025.11 413.379 1024.81 413.665H1024.8ZM1063.47 418.289C1061.69 416.967 1060.27 425.172 1060.98 426.54C1062.8 430.11 1059.12 426.54 1059.47 426.802C1056.88 435.129 1063.12 431.717 1063.68 434.797C1064.41 438.675 1067.59 436.666 1069.04 439.06C1069.62 439.986 1069.33 436.585 1070.33 436.789C1072.45 437.22 1073.09 440.469 1074.98 440.586C1074.98 440.586 1073.35 437.854 1074.06 437.523C1074.78 437.191 1074.98 436.94 1073.13 435.776C1069.7 433.691 1067.09 436.16 1065.85 432.91C1064.77 430.115 1065.64 428.386 1065.64 427.786C1065.64 427.186 1066.42 428.718 1067.28 426.785C1068.06 425.127 1068.38 423.287 1068.2 421.462C1068.06 419.605 1069.49 418.865 1068.41 418.801C1067.34 418.737 1064.2 418.836 1063.48 418.289H1063.47ZM1080.47 454.054C1080.69 455.4 1079.18 453.676 1078.62 454.45C1078.06 455.225 1077.76 455.073 1076.87 455.452C1074.5 456.43 1073.2 459.709 1073.79 456.25C1073.84 455.947 1073.13 454.404 1072.46 455.452C1071.8 456.548 1070.81 457.411 1069.64 457.921C1066.95 459.272 1066.19 462.492 1067.93 462.417C1070.42 460.501 1068.67 459.173 1072.48 458.69C1077.46 458.107 1072.59 464.594 1076.68 465.986C1078.53 466.609 1077.65 466.033 1079.34 465.887C1083.53 465.509 1077.29 462.975 1081.21 460.716C1081.56 460.518 1081.79 461.718 1082.29 462.964C1083.71 466.458 1084.88 455.12 1082.18 453.152C1079.47 451.184 1079.87 450.089 1080.48 454.054H1080.47ZM1072.25 445.902C1072.31 444.644 1069.22 441.575 1066.78 441.156C1060.45 440.067 1062.8 446.578 1066.34 447.119C1066.9 447.219 1067.47 447.201 1068.02 447.066C1068.58 446.932 1069.1 446.684 1069.55 446.339C1069.7 446.758 1063.63 450.147 1067.18 452.267C1068.66 453.146 1068.63 454.503 1069.48 453.822C1070.33 453.14 1070.96 450.811 1072.69 449.163C1074.42 447.515 1074.54 447.299 1074.76 445.57C1075.39 440.719 1074.8 442.507 1072.26 445.908L1072.25 445.902ZM1076.13 442.14C1077.41 443.386 1078.59 443.666 1078.46 444.586C1078.03 447.067 1074.38 443.148 1077.04 447.358C1077.82 448.592 1077.56 451.259 1078.35 450.351C1077.85 441.907 1079.67 447.597 1080.17 446.187C1082.61 439.345 1074.24 440.306 1076.14 442.129L1076.13 442.14ZM1057.82 445.634C1056.33 446.007 1057.71 448.517 1054.2 451.952C1047.5 458.486 1050.28 456.454 1052 455.644C1054.23 454.596 1055.99 453.198 1056.25 451.778C1056.51 450.357 1055.99 451.23 1057.95 450.304C1059.91 449.378 1058.91 449.081 1058.99 447.631C1059.07 446.181 1058.81 445.39 1057.83 445.622L1057.82 445.634ZM1176.08 500.145C1175.8 502.235 1177.52 504.221 1169.42 505.572C1168.62 505.706 1162.77 504.128 1164.9 506.434C1168.8 510.737 1172.78 507.313 1177.22 505.939C1182.48 504.302 1176.4 497.635 1176.09 500.15L1176.08 500.145ZM1185.39 504.139C1187.85 507.633 1186.55 507.785 1191.56 509.467C1192.95 509.927 1191.56 508.967 1190.53 507.569C1189.5 506.172 1189.42 505.403 1187.88 504.005C1186.35 502.608 1183.74 501.851 1185.37 504.145L1185.39 504.139ZM1064.75 392.224C1060.17 395.136 1058.11 394.92 1059.93 398.63C1063.57 406.025 1063.43 406.2 1065.57 401.192C1066.82 398.28 1066.96 394.437 1067.46 393.278C1067.96 392.119 1066.3 391.228 1064.73 392.23L1064.75 392.224ZM1143.14 248.625C1145.18 256.446 1141.71 251.304 1140.81 258.525C1139.65 267.516 1141.52 261.925 1141.52 268.575C1141.52 280.146 1139.84 276.652 1140.36 281.014C1140.64 283.302 1140.09 292.689 1140.29 294.459C1140.43 295.799 1141.14 293.795 1141.64 293.33C1144.22 290.919 1149.67 299.339 1145.57 290.534C1143.21 285.474 1142.79 286.546 1143.43 281.951C1144.07 277.357 1144.42 277.293 1146.85 276.821C1150.12 276.198 1152.55 284.665 1149.76 276.291C1146.79 267.23 1147.65 264.377 1145.27 262.647C1141.86 260.196 1148.5 261.133 1144.41 247.07C1144.05 245.906 1142.63 247.804 1142.63 247.804L1143.14 248.625ZM1141 299.613C1141.14 301.074 1141.28 302.402 1140.29 304.067C1139.29 305.733 1140 306.135 1139.43 308.458C1138.87 310.782 1136.07 308.458 1136.07 308.93C1136.07 314.712 1129.04 309.093 1134.5 319.51C1136.22 317.909 1136.25 318.078 1137.92 317.583C1137.46 316.11 1133.68 316.116 1134.93 313.454C1135.14 312.983 1137.14 313.588 1138.42 313.454C1144.09 312.872 1140.75 314.52 1146.21 315.65C1146.39 314.543 1146.72 313.469 1147.21 312.459C1147.93 311.108 1156.46 311.119 1154.99 309.326C1154.28 308.458 1154.35 306.531 1153.92 305.069C1153.48 303.607 1152.13 304.999 1151.06 305.535C1146.41 307.852 1140.46 294.401 1140.98 299.619L1141 299.613ZM1133.21 325.485C1133.37 327.43 1135.03 325.334 1132.88 331.308C1130.74 337.283 1129.67 338.645 1127.58 340.194C1125.5 341.743 1123.57 341.743 1122.76 341.359C1121.13 340.555 1126.49 337.952 1120.73 338.814C1119.71 338.966 1120.68 340.113 1120.56 341.056C1120.45 341.999 1118.48 344.55 1118.7 345.715C1118.92 346.879 1118.91 347.211 1117.62 347.607C1116.33 348.003 1115.48 346.658 1115.11 346.443C1114.73 346.227 1112.78 346.798 1110.28 347.141C1107.79 347.485 1107.13 348.306 1106.05 350.187C1104.98 352.068 1102.46 352.336 1100.64 353.029C1098.82 353.721 1099.52 356.33 1097.53 357.227C1095.55 358.124 1095.55 359.772 1095.39 361.117C1095.23 362.462 1096.62 361.519 1096.83 361.42C1097.05 361.321 1097.05 359.521 1098.29 359.725C1099.52 359.929 1099.67 359.97 1099.03 361.367C1096.8 366.212 1096.43 364.966 1098.55 367.616C1099.52 368.78 1100.43 367.26 1102.46 365.117C1104.49 362.974 1104.66 362.468 1104.5 360.022C1104.15 354.781 1098.86 358.368 1101.87 354.927C1103.53 353.029 1104.28 354.88 1105.41 354.03C1106.53 353.18 1109.26 353.227 1111.89 352.586C1117.67 351.153 1117.19 350.379 1118.16 356.225C1118.26 356.808 1119.98 355.381 1121.74 354.729C1123.88 353.943 1119.91 352.574 1122.5 350.833C1124 353.954 1128.9 349.372 1130.06 349.669C1130.81 349.872 1131.3 350.618 1132.47 349.872C1133.65 349.127 1133.87 349.82 1133.63 350.42C1133.4 351.02 1137.06 349.255 1137.87 348.725C1139.07 347.898 1136.53 344.556 1137.17 341.638C1138.06 337.562 1137.3 335.355 1138.99 334.942C1139.43 334.849 1139.43 332.613 1140.33 331.401C1141.23 330.19 1141.03 329.654 1141.03 326.906C1141.03 323.202 1138.17 325.31 1139.79 318.87C1136.3 320.192 1136.42 320.722 1136.09 321.415C1135.64 321.007 1132.83 321.007 1133.19 325.491L1133.21 325.485ZM1114.59 351.439C1106.55 352.784 1104.82 352.953 1105.33 356.208C1106.42 363.196 1107.21 361.309 1109.67 360.005C1111.41 359.061 1111.32 356.324 1113.01 356.324C1114.7 356.324 1114.08 358.275 1116.35 355.533C1118.63 352.79 1116.93 352.569 1116.97 351.183C1117.02 349.797 1114.59 351.445 1114.59 351.445V351.439ZM1310.08 203.438C1309.06 207.293 1314.54 205.12 1316.76 206.768C1320.13 209.296 1322.69 207.426 1323 207.036C1322.03 206.535 1310.69 201.009 1310.08 203.438ZM1274.14 152.473C1274.45 155.513 1275.15 155.868 1279.06 155.315C1282.4 154.849 1290.28 154.68 1291.86 153.62C1288.78 147.46 1286.34 151.874 1280.93 150.977C1273.94 149.806 1273.86 149.929 1274.14 152.473ZM1162.66 110.692C1164.59 111.647 1166.08 111.24 1170.16 110.791C1174.24 110.343 1174.55 108.602 1175.03 107.6C1175.81 105.981 1164.75 106.569 1164.42 106.406C1163.46 105.906 1165.87 105.405 1163.46 104.508C1161.04 103.611 1160.46 104.805 1159.92 104.409C1159.38 104.013 1159.28 103.151 1158.11 103.058C1157.02 102.965 1150.76 104.811 1162.66 110.692ZM1134.37 112.142C1132.52 112.882 1132.66 113.54 1134.74 115.287C1136.82 117.034 1136.14 116.632 1135.23 117.884C1134.32 119.136 1135.23 117.831 1138.23 119.176C1141.22 120.522 1142.46 122.973 1144.34 123.521C1145.37 123.863 1146.5 123.811 1147.5 123.375C1145.17 116.178 1139.73 116.55 1138.81 113.79C1138.12 111.694 1136.99 111.088 1134.37 112.142ZM1153.5 102.359C1145.35 97.4504 1142.21 94.9988 1139.56 94.6203C1136.92 94.2418 1139.89 99.8611 1134.79 97.363C1126.97 93.5372 1128.04 92.2969 1122.26 98.0152C1119.75 100.508 1121.2 101.212 1124.25 104.904C1130.23 112.148 1131.97 104.601 1134.64 105.649C1136.39 106.348 1142.52 104.951 1142.73 104.951C1142.95 104.951 1142.35 108.345 1145.06 107.449C1147.76 106.552 1150.2 106.103 1151.46 104.753C1152.72 103.402 1153.48 102.359 1153.48 102.359H1153.5ZM967.984 31.0606C967.204 31.7186 962.63 31.3226 960.273 35.0494C957.916 38.7762 956.275 36.2141 955.036 38.4444C948.92 49.916 960.221 41.979 965.749 49.6306C967.96 52.6878 969.607 52.6878 974.961 53.5496C980.315 54.4114 977.871 55.1568 980.681 54.8889C983.492 54.6211 987.315 55.2208 986.466 53.8232C982.788 47.8196 988.712 46.5619 985.249 44.4364C982.34 42.637 980.245 44.1044 980.39 43.7725C980.536 43.4406 983.032 42.439 982.037 42.375C973.96 41.8393 973.972 36.8254 977.888 36.0451C980.384 35.556 968.269 28.8361 969.037 29.2612C967.262 30.1929 968.775 30.391 967.984 31.0606ZM984.702 61.2071C983.201 62.4009 983.626 62.7444 986.058 63.612C988.491 64.4797 992.768 62.0747 993.984 62.0048C995.2 61.9349 996.131 63.81 999.984 63.3383C1003.84 62.8667 1009.7 62.1387 1006.84 60.0773C1001.57 56.2748 998.948 53.9689 994.7 53.7534C994.7 53.7534 1001.2 51.5581 999.635 51.4242C988.927 50.4983 992.82 54.7143 984.72 61.2071H984.702ZM829.718 18.4128C825.976 19.7521 827.285 20.4101 824.853 22.3434C822.42 24.2767 824.061 24.8008 829.287 23.508C846.768 19.3037 836.247 16.066 829.718 18.4128ZM837.993 27.7996C834.501 29.3544 835.421 30.9965 836.357 32.3242C837.294 33.6519 839.849 31.5206 840.565 32.9938C841.281 34.4671 841.496 33.8499 844.784 31.6546C848.072 29.4593 846.855 30.1289 845.575 27.7996C844.295 25.4704 843.998 25.1384 837.993 27.7996ZM818.481 26.833C816.234 27.9045 816.234 27.7821 818.37 28.7779C820.506 29.7736 825.714 30.5773 828.385 28.8245C831.056 27.0717 830.858 27.4328 827.477 26.932C824.096 26.4312 820.995 25.6334 818.481 26.833ZM785.375 30.8743C801.715 29.4825 796.583 33.4248 791.479 33.9722C786.376 34.5196 791.962 35.3231 795.605 35.1717C799.248 35.0203 796.891 32.0214 799.946 30.9732C803.001 29.925 804.928 30.5773 808.565 29.2787C812.202 27.9802 806.481 26.734 802.245 26.833C798.008 26.932 796.623 27.1765 793.033 26.932C789.442 26.6874 786.55 28.3004 782.855 28.9293C775.226 30.2278 781.895 31.1712 785.375 30.8743ZM812.69 31.8234C809.63 31.8234 802.216 33.5238 808.46 34.1178C821.78 35.4047 818.289 31.8234 812.69 31.8234ZM834.338 33.1277C826.313 30.4724 820.238 34.0363 824.003 35.5677C826.732 36.6858 833.209 35.7308 830.049 34.5196C828.868 34.0712 836.91 33.9721 834.338 33.1277ZM852.657 27.7356C849.311 28.1491 849.119 28.7313 848.799 29.8261C848.479 30.9208 849.282 30.6762 852.82 30.2278C865.815 28.5799 859.838 24.4397 859.838 23.1877C859.838 22.6403 856.574 24.8415 855.66 25.6334C854.746 26.4254 856.614 27.2348 852.657 27.7356ZM590.319 219.207C588.637 223.865 585.855 226.014 589.155 224.721C592.454 223.428 595.725 219.428 595.556 222.864C595.387 226.299 592.181 225.775 593.193 229.164C594.206 232.553 593.444 232.245 598.919 233.462C604.395 234.679 599.932 234.254 601.282 237.474C607.032 251.281 591.634 232.489 597.826 246.5C598.838 248.788 597.15 250.081 593.956 251.583C590.761 253.086 593.531 254.017 595.975 253.878C598.419 253.738 604.564 252.585 603.54 254.734C602.516 256.882 599.583 254.378 597.482 257.96C595.381 261.541 587.589 264.621 591.663 264.406C595.736 264.191 595.12 263.119 607.171 261.401C621.661 259.334 629.098 254.926 619.805 256.457C615.417 257.174 622.674 252.154 621.661 247.507C620.649 242.86 617.786 247.292 615.929 244.351C614.073 241.41 614.329 240.554 617.867 241.626C621.405 242.697 621.073 240.915 614.242 236.542C607.41 232.169 611.635 233.048 608.516 229.38C605.396 225.711 600.095 226.154 600.095 226.154C602.737 224.576 605.495 219.3 606.741 216.487C609.534 210.233 595.888 217.361 597.651 214.053C599.414 210.746 604.983 206.99 599.501 208.23C586.775 211.153 592.693 212.656 590.319 219.207ZM581.811 230.166C576.306 232.338 577.854 233.753 578.779 234.533C579.704 235.313 581.392 233.817 576.253 236.763C571.115 239.71 571.016 242.919 573.722 243.559C576.428 244.2 576.085 241.987 573.222 247.362C564.627 263.422 581.619 250.658 584.424 250.273C587.229 249.889 587.712 247.694 587.712 244.328C587.712 240.962 585.861 240.892 588.049 238.097C590.237 235.302 590.406 232.361 586.105 231.004C581.805 229.648 585.268 228.803 581.811 230.166ZM651.008 305.343C650.711 306.094 651.369 308.138 649.151 309.53C646.934 310.921 650.222 312.197 650.932 313.53C652.172 315.813 653.44 299.054 651.008 305.343ZM649.937 316.407C646.306 318.125 646.085 319.4 645.648 322.131C645.212 324.862 648.558 322.661 647.72 325.042C646.882 327.424 647.656 328.705 651.438 326.446C655.221 324.187 653.079 322.119 653.65 319.254C654.22 316.389 654.726 314.124 649.937 316.389V316.407ZM705.93 345.82C702.741 345.511 701.327 347.52 706.791 348.149C712.256 348.778 714.717 348.847 716.754 348.347C718.791 347.846 717.068 348.248 714.391 346.454C711.714 344.661 710.004 346.204 705.93 345.802V345.82ZM736.353 347.52C731.954 346.571 733.147 351.916 737.645 351.119C742.143 350.321 740.427 351.416 742.469 348.12C744.512 344.824 740.962 348.498 736.353 347.502V347.52ZM626.951 322.725C623.378 323.185 623.099 324.396 625.886 325.124C628.673 325.852 628.313 324.996 629.884 323.86C631.455 322.725 628.516 322.509 626.934 322.707L626.951 322.725ZM410.555 257.535C403.532 263.113 403.212 269.059 396.95 275.505C393.947 278.603 395.449 277.898 404.771 279.698C414.094 281.497 413.337 282.894 415.484 282.295C417.632 281.695 418.056 283.459 418.056 285.393C418.056 288.607 425.197 283.028 418.167 271.714C416.235 268.616 415.799 268.616 412.808 269.385C409.816 270.153 410.765 268.686 409.7 266.293C408.635 263.899 406.907 265.792 409.485 262.216C412.063 258.641 412.685 255.858 410.555 257.535ZM125.411 251.129C125.411 254.099 128.548 259.177 130.905 260.848C133.261 262.519 132.767 261.582 131.696 258.047C130.625 254.512 131.481 254.524 130.974 252.259C130.468 249.994 125.399 250.098 125.399 251.164L125.411 251.129ZM154.403 276.355C160.955 278.259 157.72 272.448 152.762 271.289C148.758 270.369 147.908 270.707 145.901 269.431C134.704 262.414 145.127 273.688 154.391 276.39L154.403 276.355ZM53.9621 234.254C48.428 233.002 45.8733 236.775 47.3223 239.099C48.2883 240.648 47.6947 239.797 49.941 238.254C52.1872 236.711 51.1048 236.507 53.9621 235.803C56.8194 235.098 56.2142 234.155 56.2142 234.155C56.2142 234.155 55.51 234.638 53.9505 234.289L53.9621 234.254ZM53.0543 230.818C51.3085 231.855 50.7266 232.71 52.676 232.309C54.6255 231.907 54.3345 230.818 55.5857 231.063C59.3682 231.849 55.5973 229.304 53.0543 230.853V230.818ZM3.59048 222.875C1.26277 224.04 -0.995114 222.677 0.459704 223.545C1.91452 224.412 3.88725 225.245 5.441 225.071C9.39229 224.628 6.79107 224.488 6.69796 222.404C6.65141 221.384 5.95892 221.763 3.59048 222.91V222.875ZM794.278 548.168C791.561 554.166 785.846 551.231 781.278 555.628C776.71 560.024 777.42 558.691 780.847 564.811C784.275 570.931 777.996 570.267 776.413 577.459C774.83 584.65 778.275 583.317 780.132 589.437C781.988 595.557 782.849 593.699 786.277 592.896C788.343 592.414 790.319 591.606 792.131 590.503C793.248 580.271 798.439 568.672 799.271 558.557C799.708 553.362 800.133 549.642 801.279 551.231C804.119 555.214 801.861 541.175 798.992 539.003C795.134 536.091 796.996 542.217 794.284 548.203L794.278 548.168ZM798.282 138.713C794.54 139.569 792.765 141.858 795.489 142.754C798.212 143.651 797.956 143.162 802.472 141.59C806.988 140.018 801.995 137.898 798.288 138.742L798.282 138.713ZM868.276 70.7279C867.002 68.7305 865.855 71.3975 852.715 77.1333C839.576 82.8691 839.709 77.9312 827.425 87.65C815.14 97.3688 817.858 96.1692 817.136 102.027C816.415 107.885 813.569 105.352 812.423 110.681C811.276 116.009 805.003 116.271 808.14 120.667C816.252 131.987 833.512 130.776 829.002 128.651C827.565 127.981 822.572 120.126 823.567 111.21C824.562 102.295 827.855 103.64 830.713 100.298C833.57 96.9554 840.995 88.3139 845.843 85.3848C851.662 81.891 869.702 76.5278 869.981 76.2017C874.992 70.6115 869.568 72.7252 868.276 70.7279ZM832.837 130.59C831.283 130.811 830.556 130.858 833.419 133.653C836.282 136.448 838.772 138.579 837.841 134.847C836.91 131.114 834.286 130.363 832.837 130.59ZM879.758 103.501C873.49 100.589 875.684 106.313 881.189 107.361C883.994 107.88 881.777 104.386 879.775 103.471L879.758 103.501ZM388.029 271.027C378.596 266.293 375.593 267.882 383.374 272.157C386.673 273.921 389.88 271.93 388.017 270.998L388.029 271.027ZM380.464 284.42C380.633 281.776 378.718 287.448 381.046 288.712C383.374 289.975 384.625 290.301 386.12 288.776C387.616 287.25 386.4 288.194 384.334 287.844C382.268 287.495 380.313 286.575 380.452 284.379L380.464 284.42ZM1309.55 192.001C1309.55 192.001 1309.34 195.099 1308.16 196.595C1305.29 200.206 1312.36 200.98 1301.73 197.178C1299.48 196.374 1297.45 197.079 1296.16 193.684C1293.83 187.587 1284.21 194.557 1285.88 186.999C1278.15 187.401 1288.71 193.049 1270.45 195.285C1277.24 200.177 1275.32 201.661 1278.91 206.966C1278.91 206.966 1278.48 208.265 1272.8 207.164C1267.11 206.064 1267.45 208.265 1261.34 210.757C1239.52 219.672 1250.55 220.453 1239.38 217.745C1234.02 216.441 1232.98 219.236 1231.56 219.94C1230.14 220.645 1230.7 216.743 1230.7 216.743C1229.2 216.83 1227.74 217.239 1226.41 217.943C1201.97 230.358 1218.85 229.7 1218.06 232.21L1215.48 241.899C1211.89 252.602 1209.41 246.995 1206.38 255.473C1194.62 288.345 1187.45 235.401 1193 232.815C1216.96 221.647 1195.24 231.266 1217.74 215.841C1225.03 210.85 1221.06 207.857 1222.67 206.46C1225.53 203.979 1230.35 205.01 1222.89 204.264C1218.92 203.868 1218.81 204.765 1215.7 208.154C1212.6 211.543 1210.14 212.155 1210.78 209.552C1211.42 206.949 1211.53 204.264 1209.17 205.662C1204.48 208.445 1195.99 206.163 1188.39 215.742C1184.42 220.738 1186.67 220.138 1187.96 221.332C1189.24 222.526 1181.63 222.229 1178 221.914C1174.36 221.6 1176.25 220.913 1178.42 220.214C1180.59 219.515 1175.21 218.915 1170.49 217.92C1165.77 216.924 1167.58 218.717 1164.82 219.812C1162.06 220.907 1162.14 218.816 1160.75 218.514C1159.36 218.211 1153.14 217.821 1148.75 217.314C1144.35 216.807 1144.67 217.617 1143.51 219.113C1142.35 220.61 1134.2 227.807 1130.65 231.895C1127.1 235.983 1122.72 236.886 1118.76 240.682C1114.8 244.479 1114.15 244.275 1117.36 244.875C1120.58 245.475 1121.01 245.166 1121.54 248.165C1122.08 251.164 1123.58 252.16 1127.01 252.16C1130.45 252.16 1129.47 253.057 1130.11 250.46C1130.75 247.862 1129.26 244.875 1132.15 247.169C1140.58 253.883 1139.13 256.108 1136.54 265.64C1131.31 284.694 1138.62 270.881 1126.58 294.395C1125.46 296.573 1109.86 317.513 1105.69 309.768C1104.52 307.573 1103.65 307.969 1100.87 310.467C1098.08 312.965 1096.79 314.462 1095.73 318.451C1094.12 324.431 1085.42 325.293 1088.54 331.133C1091.79 337.172 1096.99 340.887 1091.01 351.602C1089.84 353.692 1084.26 354.694 1084.36 353.692C1084.53 350.733 1084.53 347.766 1084.36 344.806C1084.15 341.895 1082.04 341.895 1082.76 341.015C1083.48 340.136 1086.62 338.622 1084.36 336.52C1082.11 334.418 1080.51 336.223 1079.54 333.731C1078.11 330.021 1082.62 326.923 1073.98 326.161C1070.65 325.864 1069.9 329.154 1069.15 326.26C1068.39 323.365 1069.48 323.068 1067.98 321.869C1066.49 320.669 1065.19 321.467 1061.34 324.78C1056.38 329.014 1048.89 328.886 1051.05 332.071C1058.12 342.378 1056.95 337.457 1064.01 337.457C1071.65 337.457 1065.55 340.317 1059.84 346.047C1053.93 351.986 1058.48 347.689 1063.27 358.229C1065.33 362.765 1060.05 366.754 1065.31 372.408C1067.56 374.83 1067.46 371.826 1058.66 389.476C1054.55 397.692 1043.88 403.638 1035.73 405.146C1023.28 407.475 1025.84 409.344 1025.45 411.138C1025.23 412.139 1023.41 411.237 1023.71 409.74C1024.67 405.309 1018.84 405.186 1015.78 408.145C1012.72 411.103 1008.92 411.336 1007.64 415.132C1006.35 418.929 1006.57 417.631 1007.97 419.209C1009.36 420.787 1016.11 427.297 1017.71 430.785C1021.6 439.246 1020.62 445.681 1008.61 453.752C999.879 459.61 1010.11 456.232 1001 446.263C998.535 443.567 991.039 441.372 989.643 441.069C988.246 440.766 990.178 438.582 989.206 438.676C988.235 438.769 986 438.175 986.297 441.674C986.594 445.174 984.051 444.068 983.515 447.562C982.98 451.056 982.351 454.648 984.58 454.351C986.809 454.054 986.407 457.449 988.118 461.24C989.829 465.031 989.183 462.941 993.472 466.429C1000.31 471.996 996.341 475.408 1000.46 481.51C1002.59 484.702 1002.7 485.4 999.163 483.601C988.828 478.36 990.591 474.453 988.24 466.83C987.379 464.035 981.601 460.739 979.669 458.742C976.177 455.138 985.063 449.017 975.485 425.498C974.414 422.854 974.844 423.203 973.157 425.498C971.469 427.792 970.218 429.195 968.606 429.195C961 429.195 967.524 425.486 966.203 421.357C962.188 409.129 959.127 414.76 955.728 405.384C954.279 401.442 953.907 402.589 951.119 404.633C948.332 406.677 941.954 406.928 938.899 407.178C935.844 407.428 938.364 408.925 937.619 410.427C936.874 411.93 933.277 413.863 926.05 421.404C913.608 434.36 912.77 428.677 912.869 433.633C912.98 440.347 913.626 440.708 910.879 446.828C908.121 453.076 910.571 454.573 904.78 458.742C902.424 460.442 902.424 460.14 901.347 457.647C896.727 446.863 881.771 430.226 886.025 404.034C886.141 403.37 883.854 405.862 883.208 407.126C882.562 408.389 882.626 409.927 880.031 410.154C877.436 410.381 876.924 410.427 874.497 407.993C872.07 405.559 870.953 404.202 871.378 404.266C872.286 404.406 878.396 403.346 877.279 401.535C870.476 402.31 873.036 401.658 869.568 400.272C865.157 398.525 866.548 399.468 864.208 393.948C862.387 389.621 862.463 391.962 858.279 392.055C852.861 392.172 854.508 394.751 844.278 394.42C838.772 394.239 839.989 392.457 830.032 391.019C824.888 390.285 830.457 385.778 820.995 386.529C813.464 387.111 812.562 384.887 810.462 382.767C808.955 381.253 806.673 382.08 804.607 376.513C802.344 370.434 802.658 371.273 798.241 371.273C795.646 371.273 796.455 370.987 793.464 374.696C792.503 375.896 794.243 377.561 795.64 379.192C797.037 380.822 795.815 380.654 798.038 383.123C800.26 385.592 799.498 385.347 801.069 388.777C802.641 392.207 803.642 393.069 803.979 394.099C804.398 395.293 805.55 392.981 804.881 388.509C808.052 395.054 804.805 397.791 809.449 397.791C821.431 397.791 818.946 394.973 822.374 393.004C823.776 392.201 823.776 389.406 824.701 389.709C825.627 390.011 824.742 393.004 825.598 394.949C826.453 396.894 826.668 396.207 828.746 397.075C837.108 400.569 833.745 399.369 835.31 402.24C837.137 405.6 838.86 401.896 837.382 406.596C836.934 408.04 833.308 415.173 831.597 410.992C828.408 417.537 832.563 417.479 827.774 419.407C816.88 423.786 821.192 423.663 818.958 425.812C818.207 426.546 817.166 425.882 814.884 426.68C810.689 428.147 810.811 430.22 808.634 431.035C806.167 431.967 801.71 434.133 799.457 434.366C797.205 434.599 797.671 435.199 797.101 436.026C795.413 438.483 788.954 437.721 785.462 439.427C782.203 441.028 778.851 443.945 777.315 439.759C773.899 430.407 779.858 429.976 762.703 411.004C761.993 410.212 762.418 407.475 761.673 405.146C758.496 395.246 758.763 400.487 754.958 393.703C741.614 369.59 747.27 380.048 745.606 374.731C745.065 373.031 743.674 377.492 742.568 378.359C739.909 380.444 739.077 370.416 737.674 372.507C734.701 376.839 744.349 387.42 747.928 398.927C750.023 405.67 752.537 404.371 753.706 408.64C755.568 415.36 751.961 415.971 757.314 420.42C759.101 421.905 760.986 427.152 761.638 429.242C762.68 432.614 763.966 432.934 767.964 434.366C769.529 434.949 768.988 435.333 770.064 436.696C771.141 438.058 773.207 439.089 774.499 441.261C776.035 443.852 773.864 445.733 775.028 447.113C775.959 448.214 777.565 449.111 780.266 450.904C782.296 452.249 780.079 452.069 797.95 447.812C807.843 445.483 810.339 442.921 803.449 457.461C801.372 461.846 791.054 478.354 789.99 479.665C786.719 483.642 783.257 483.834 777.49 491.206C776.844 492.027 758.414 514.382 760.771 516.898C766.177 522.61 760.969 521.842 762.994 527.083C764.868 531.986 766.648 528.911 767.067 538.333C768.231 562.557 757.757 555.418 752.956 561.154C743.895 572.125 744.093 568.538 748.137 577.365C749.348 580.021 748.498 579.823 748.213 582.123C747.16 590.491 748.172 588.092 740.281 591.172C736.359 592.704 737.872 590.695 737.139 602.353C736.976 605.119 737.395 600.606 728.782 614.669C724.709 621.272 719.617 621.656 717.895 625.319C716.678 627.881 715.282 626.181 709.393 628.079C703.503 629.978 707.786 629.046 702.182 629.675C687.116 631.387 690.649 632.895 687.209 629.093C682.554 623.968 684.23 625.331 683.823 620.533C683.456 616.177 683.485 619.071 679.965 610.453C676.892 602.929 675.036 603.226 673.86 602.003C672.114 600.216 672.568 599.138 670.951 587.02C669.67 577.435 660.54 564.31 660.476 562.994C660.412 562.091 662.222 551.575 662.286 551.249C662.757 548.389 661.651 548.424 662.867 546.456C666.126 541.169 668.343 537.82 665.655 530.349C664.316 526.657 661.744 512.379 660.726 509.555C660.016 507.558 659.655 508.355 658.09 507.057C639.468 491.637 665.655 475.099 641.976 474.645C638.584 474.575 638.729 473.812 637.269 472.112C632.148 466.213 634.359 466.592 625.554 467.25C615.883 467.978 614.824 470.743 611.088 472.048C604.104 474.47 604.104 468.775 591.587 474.115C586.833 476.147 586.21 472.694 579.693 469.486C567.362 463.377 562.665 448.29 554.879 437.54C553.768 436.003 552.918 435.875 552.947 435.141C552.988 434.273 557.381 425.172 557.55 424.56C558.132 422.615 553.774 408.255 553.669 407.953C553.419 407.155 568.31 381.545 569.061 380.863C574.88 375.518 579.536 374.708 579.984 373.375C580.758 371.173 581.252 358.986 583.341 357.873C592.536 352.976 591.529 353.052 593.013 349.517C593.874 347.485 594.235 344.928 595.521 344.09C596.807 343.251 596.446 344.457 598.122 345.587C602.074 348.254 601.09 346.367 604.343 346.326C609.813 346.233 605.734 349.348 611.588 345.744C618.379 341.574 628.202 338.395 631.443 338.028C633.323 337.807 636.948 340.509 637.583 339.589C640.097 336.007 640.492 337.224 645.049 338.028C650.123 338.919 651.159 336.095 652.084 336.095C652.404 336.095 658.2 337.842 657.549 338.622C651.66 345.761 661.564 342.803 654.086 351.666C652.922 353.063 653.196 353.296 656.088 354.933C667.377 361.274 669.699 358.345 673.365 362.619C674.692 364.145 674.762 365.612 677.043 366.41C679.324 367.208 681.757 367.208 683.084 368.041C684.282 368.792 688.164 372.292 689.904 369.671C693.011 365.013 689.409 366.177 690.078 364.215C691.871 358.974 693.75 359.329 696.73 359.189C705.011 358.799 696.881 359.143 708.723 363.72C710.545 364.413 709.62 365.408 710.545 365.344C716.335 364.931 717.214 367.552 722.864 367.773C729.585 368.041 730.295 362.794 732.227 365.548C734.235 368.425 741.375 367.878 743.255 365.746C746.357 362.2 749.493 351.101 749.86 349.401C750.82 345.033 748.562 345.173 750.331 340.119C750.867 338.593 748.649 339.536 747.753 339.822C746.857 340.107 746.618 339.356 745.798 339.117C742.155 338.121 745.257 342.611 739.897 342.355C734.125 342.052 739.717 341.26 731.791 338.919C728.526 337.952 731.372 340.561 728.881 341.417C727.316 341.953 722.998 341.225 718.698 336.992C715.858 334.202 715.014 327.203 715.701 325.479C716.626 323.097 711.709 327.296 713.553 323.22C714.938 320.157 716.51 320.372 721.38 320.052C722.899 319.953 728.119 317.851 727.13 317.589C718.488 315.318 733.49 315.993 734.2 314.73C736.737 310.124 737.366 311.276 742.557 311.067C745.839 310.933 745.338 311.731 746.409 312.499C747.48 313.268 748.195 312.895 749.592 313.163C750.989 313.431 750.127 314.264 751.198 314.695C757.599 317.286 764.734 318.031 770.448 313.961C772.089 312.796 770.943 310.263 770.344 308.307C769.744 306.35 767.16 305.081 765.979 304.178C764.798 303.276 762.272 300.416 760.911 299.257C758.286 297.01 746.863 293.889 754.841 291.967C758.274 291.134 754.777 289.638 759.194 288.007C761.015 287.343 757.093 285.94 756.552 285.183C755.656 283.879 760.724 285.532 761.789 282.149C762.68 279.488 754.12 282.207 751.361 282.947C747.753 283.908 749.406 283.948 747.224 285.643C745.041 287.338 744.896 286.604 745.187 287.541C745.478 288.479 745.612 289.37 747.829 290.534C750.046 291.699 749.109 291.734 749.726 291.903C750.343 292.072 751.833 292.299 751.152 292.485C749.231 293.033 739.513 300.993 740.043 294.71C740.223 292.578 739.403 294.017 738.076 293.516C733.351 291.711 739.56 293.027 741.474 288.193C742.225 286.272 735.416 288.287 733.973 285.363C734.598 285.547 735.255 285.592 735.899 285.497C737.151 285.363 736.871 285.026 737.325 284.694C738.914 283.57 737.203 284.309 734.869 284.164C731.581 283.954 730.144 283.704 726.938 289.154C725.71 291.257 728.311 293.924 723.789 296.142C722.626 296.724 723.4 297.115 723.26 298.244C722.678 303.066 721.956 302.775 721.049 303.835C715.398 310.322 724.61 314.2 723.9 315.516C722.928 317.327 720.99 314.293 717.761 317.379C716.335 318.742 716.015 319.51 715.293 320.011C714.572 320.512 714.793 319.01 714.514 318.311C714.234 317.612 710.94 317.379 708.694 316.71C705.529 315.778 705.098 314.811 701.461 316.814C697.027 319.254 701.926 321.898 701.304 326.597C700.763 330.592 703.288 328.746 704.353 331.192C705.965 334.854 703.829 330.813 702.025 338.127C701.548 340.124 702.078 340.375 701.49 340.276C700.902 340.177 700.21 340.625 699.087 338.977C697.964 337.329 697.05 338.884 696.887 337.929C696.724 336.974 695.327 335.384 695.869 333.189C696.41 330.994 697.259 330.79 695.327 329.643C693.395 328.496 693.89 328.344 693 325.997C690.672 319.936 688.193 320.85 688.979 317.362C691.818 304.824 675.559 303.555 673.604 299.793C672.58 297.819 669.531 288.659 664.666 290.476C662.088 291.425 662.035 291.821 662.251 292.567C664.095 298.972 660.086 296.765 664.445 299.357C667.43 301.138 667.203 305.18 669.967 308.243C673.726 312.435 676.223 310.834 677.032 311.591C678.271 312.756 672.481 311.306 678.964 315.335C681.216 316.727 683.52 318.183 684.114 319.278C684.707 320.372 686.68 324.518 683.788 321.467C680.896 318.416 680.843 319.831 680.034 321.921C679.225 324.012 680.779 325.619 680.68 327.162C680.581 328.705 679.231 328.117 678.318 329.357C677.404 330.598 676.927 332.1 675.856 332.904C674.267 334.068 675.466 329.375 672.946 334.202C671.608 336.764 675.495 340.357 672.033 340.194C669.944 340.095 670.421 338.145 668.501 336.846C666.58 335.547 665.445 336.002 663.845 334.994C660.889 333.172 670.828 334.074 674.291 331.407C681.384 325.916 669.944 315.76 664.753 314.485C662.722 313.984 663.1 312.156 661.971 311.574C653.138 307.282 655.477 288.624 642.366 301.336C639.794 303.835 640.329 305.034 637.327 303.136C632.392 300.009 628.545 303.718 628.545 310.426C628.545 316.453 625.525 306.682 616.977 322.905C613.869 328.793 617.186 325.997 616.546 327.995C615.906 329.992 616.761 331.588 613.869 334.185C610.977 336.782 612.257 333.888 610.546 335.984C608.836 338.08 606.473 339.775 602.399 339.28C598.326 338.785 599.49 340.375 596.929 340.975C594.369 341.574 592.972 342.471 593.612 339.577C594.252 336.683 593.717 337.079 588.794 337.277C580.647 337.603 582.323 340.771 583.76 333.387C584.296 330.592 585.041 329.689 584.296 329.689C580.286 329.689 585.221 321.91 584.185 316.296C583.65 313.384 584.395 309.506 583.76 307.812C583.126 306.117 585.041 304.423 584.185 303.514C582.265 301.505 581.206 300.632 589.754 302.123C593.193 302.705 596.737 301.622 598.757 301.82C612.508 303.194 613.84 307.48 613.113 296.73C612.682 290.441 613.433 287.547 612.147 286.249C610.861 284.95 609.476 285.049 608.073 283.337C606.671 281.625 607.747 279.139 604.75 278.242C601.754 277.345 598.425 278.044 600.037 277.444C601.649 276.844 602.283 276.64 600.572 275.348C596.534 272.308 599.99 272.25 604.646 272.25C605.134 274.952 611.379 271.871 610.762 270.357C608.329 264.534 609.016 269.257 614.713 269.257C618.786 269.257 618.466 268.674 618.146 266.962C617.826 265.25 620.829 265.367 622.866 263.963C624.903 262.56 622.109 260.97 622.546 259.678C623.663 256.23 634.609 258.239 632.503 255.782C632.078 255.281 632.613 253.179 632.927 250.489C633.364 246.907 631.967 245.195 640.649 244.398C645.037 244.002 642.36 243 643.105 242.802C655.815 239.407 648.925 243.833 647.08 226.928C646.114 218.141 646.323 218.141 651.677 216.546C657.031 214.95 655.861 215.445 655.43 220.342C654.913 226.305 648.337 228.401 654.267 238.394C656.524 242.185 656.309 240.286 661.128 240.286C665.946 240.286 664.875 241.486 668.111 242.581C671.346 243.676 670.252 240.589 673.348 239.489C675.769 238.633 672.12 239.85 687.035 238.551C686.814 238.551 686.017 238.551 686.843 238.091C688.56 237.09 688.984 235.296 691.458 234.993C693.931 234.69 695.63 235.698 695.531 231.895C695.432 228.093 694.035 228.704 694.46 225.81C695.531 218.665 695.147 219.154 697.998 218.421C701.106 217.629 698.964 221.216 702.712 222.013C706.46 222.811 705.924 223.411 706.57 220.523C707.216 217.634 709.253 213.826 707.426 214.03C705.598 214.234 705.179 213.931 703.352 211.235C701.525 208.539 700.443 207.939 701.647 207.939C702.852 207.939 706.786 206.844 712.459 207.042C724.901 207.473 717.481 206.961 721.031 204.748C722.963 203.548 729.283 205.33 728.317 204.247C722.62 197.766 696.497 210.385 696.497 197.556C696.497 194.26 697.661 192.967 695.746 189.771C693.832 186.574 699.279 183.883 703.032 180.488C706.786 177.094 705.82 174.293 708.066 174.083C715.049 173.501 704.533 166.583 703.137 166.298C701.211 165.902 698.318 163.7 695.322 168.895C692.325 174.089 695.531 174.584 696.072 177.28C696.613 179.976 691.888 181.973 688.356 184.466C684.824 186.958 683.538 186.364 682.461 192.752C681.384 199.14 680.319 199.344 684.282 201.539C694.326 207.118 682.38 206.856 679.138 213.022C676.81 217.512 677.753 219.707 676.81 221.705C675.868 223.702 672.848 224.616 671.986 226.596C671.125 228.576 671.131 232.384 667.488 231.79C663.845 231.197 665.882 226.293 664.27 223.795C662.658 221.297 661.36 219.207 659.452 216.115C657.543 213.023 659.027 210.023 657.2 208.422C655.372 206.821 654.948 203.635 654.948 203.635C653.388 207.287 653.9 207.642 650.35 212.027C646.702 216.516 641.237 216.813 638.56 215.713C635.884 214.612 636.314 212.027 636.314 208.725C636.314 190.062 634.516 193.282 643.926 187.663C649.6 184.268 649.704 184.466 651.095 182.27C655.506 175.318 659.859 179.242 667.488 160.008C669.635 154.616 673.592 151.32 677.451 145.532C686.494 131.976 700.268 132.546 706.268 123.986C708.304 121.075 709.177 122.793 712.593 122.094C716.009 121.395 715.503 122.094 712.052 125.489C708.601 128.884 707.129 132.477 710.021 129.781C715.526 124.65 717.353 121.826 726.734 126.089C731.128 128.086 731.878 128.284 729.417 129.88C726.955 131.475 722.771 131.079 722.771 131.079C723.289 132.12 724.06 133.013 725.014 133.677C725.968 134.341 727.074 134.753 728.23 134.876C732.303 135.377 734.555 131.679 737.232 133.076C739.909 134.474 740.659 135.47 737.017 135.173C731.611 134.73 731.605 139.185 747.625 141.363C753.514 142.161 756.092 146.452 760.585 148.351C765.077 150.249 770.338 148.648 768.842 152.747C767.347 156.847 770.006 160.829 762.197 162.728C754.387 164.626 754.585 162.146 748.056 160.131C736.953 156.742 732.804 153.009 741.655 161.231C749.511 168.545 739.251 176.418 748.056 180.698C753.2 183.196 752.449 182.492 754.05 182.096C755.65 181.7 758.338 181.199 757.693 180.395C757.047 179.592 756.529 178.107 754.783 177.303C753.037 176.5 752.967 174.607 754.678 173.705C756.389 172.802 757.995 174.502 761.749 174.287C765.502 174.071 761.749 172.895 763.57 170.997C765.391 169.098 765.502 165.907 769.896 164.201C774.289 162.495 778.991 165.005 780.178 163.106C784.909 155.507 774.359 153.586 777.269 150.825C778.764 149.434 781.767 145.736 783.164 147.832C784.56 149.929 788.092 152.229 783.594 151.827C779.096 151.425 782.192 158.518 786.265 158.116C793.795 157.376 806.784 142.23 815.193 145.94C822.793 149.259 824.963 145.654 833.302 144.239C838.016 143.447 832.982 145.94 835.118 146.633C837.254 147.326 837.481 147.931 839.087 146.836C844.702 142.987 846.803 144.309 839.407 139.144C844.027 128.93 863.592 143.546 871.122 152.537C871.122 152.537 873.042 149.247 871.436 143.75C869.83 138.253 865.762 139.558 865.762 134.369C865.762 129.181 862.009 130.572 863.301 126.881C864.593 123.189 868.224 121.785 869.196 117.092C871.238 107.082 871.907 107.717 884.832 109.522C884.832 109.522 884.832 113.813 882.155 120.207C879.478 126.601 883.546 127.294 882.906 135.08C882.266 142.865 882.155 143.867 883.977 145.66C885.798 147.454 889.214 149.655 887.939 153.044C883.051 165.971 867.956 159.694 872.507 162.734C875.029 164.412 877.88 165.533 880.869 166.024C884.081 166.525 882.475 165.826 885.041 163.729C887.608 161.633 893.404 157.44 893.188 155.437C892.973 153.434 889.866 150.348 892.025 148.851C894.184 147.355 895.016 145.061 898.344 146.959C901.673 148.857 904.879 155.944 904.879 155.641C904.879 155.338 904.233 148.653 900.276 144.664C896.319 140.676 889.802 144.461 889.802 140.973C889.802 137.485 891.617 132.68 891.187 128.884C890.756 125.087 889.266 121.314 891.728 118.006C894.189 114.698 894.3 112.119 894.3 112.119C895.842 116.585 892.257 125.297 896.761 125.297C898.583 125.297 906.724 125.396 902.331 124.097C897.937 122.799 896.657 121.599 901.044 119.206C907.923 115.461 925.584 127.218 922.791 120.207C922.112 118.311 920.785 116.716 919.044 115.706C914.173 112.614 917.036 120.603 912.642 105.125C912.107 103.227 914.254 104.729 917.676 104.729C952.545 104.729 938.34 102.435 937.176 91.0508C936.437 83.7485 964.026 85.7051 984.423 80.8661C997.062 77.873 988.927 78.3737 990.743 74.7808C994.147 68.0783 1007.04 71.1355 1005.22 71.7819C1003.82 72.2827 999.64 74.3733 1006.18 75.7766C1012.71 77.18 1011 77.0693 1007.57 78.2747C1004.13 79.4801 1007.04 81.6638 1013.67 81.6638C1020.3 81.6638 1016.35 81.0814 1015.28 78.8686C1014.2 76.6558 1016.25 77.4712 1021.71 78.3737C1027.18 79.2763 1029.32 80.173 1032.32 82.9623C1044.07 93.9448 1031.56 95.1909 1018.17 103.635C1011.53 107.821 1013.14 110.04 1009.5 112.812C1002.68 118.053 1021.35 109.009 1030.4 109.9C1036.44 110.483 1034.08 112.294 1048.5 112.294C1057.92 112.294 1056.52 112.294 1053.1 114.99C1046.85 119.904 1067.65 118.618 1071.1 118.082C1074.97 117.499 1071.64 114.588 1076.25 114.39C1095.9 113.546 1088.73 113.714 1092.42 117.587C1099.75 125.268 1091.35 122.403 1093.38 132.727C1094.35 137.618 1096.81 138.317 1099.81 139.214C1102.82 140.111 1102.81 134.829 1105.7 133.03C1108.59 131.23 1109.24 136.617 1112.56 135.825C1121.18 133.764 1123.22 138.736 1131.95 136.821C1136.03 135.924 1134.73 134.328 1133.35 131.83C1131.96 129.332 1131.84 129.53 1134.41 126.939C1136.99 124.347 1138.7 125.64 1147.06 127.836C1177.77 135.901 1172.36 142.009 1176.95 144.903C1180.27 147.005 1180.49 144.903 1187.13 144.321C1193.78 143.739 1193.67 145.119 1200.95 147.017C1212.22 149.929 1201.5 156.491 1208.77 158.081C1213.27 159.083 1215.09 159.979 1218.95 158.984C1222.8 157.988 1219.38 159.979 1227.95 160.078C1236.52 160.177 1233.63 159.083 1236.2 160.876C1238.77 162.67 1239.41 166.268 1243.59 165.872C1247.77 165.476 1247.45 165.57 1245.73 161.878C1243.04 156.084 1240.49 156.876 1262.23 160.375C1271.54 161.878 1271.87 163.572 1279.48 168.365C1310.7 188.053 1310.58 184.239 1319.86 191.657C1320.15 192.269 1313.75 193.561 1309.54 191.96L1309.55 192.001ZM816.426 294.127C816.426 294.127 815.844 294.89 818.859 292.491C823.27 288.997 812.26 295.589 814.035 288.415C814.57 286.214 813.819 286.214 811.998 283.32C811.998 283.32 811.032 282.737 809.001 283.902C806.97 285.067 805.789 282.708 803.321 283.605C800.854 284.502 798.177 284.1 796.676 287.798C795.174 291.495 793.464 289.096 792.928 292.089C792.393 295.082 787.784 296.678 787.784 296.678C795.78 304.562 790.245 309.413 797.095 312.255C798.796 313.046 800.442 313.948 802.024 314.957C802.024 314.957 800.202 313.85 800.202 316.849C800.202 319.848 797.293 321.939 797.63 326.329C797.968 330.72 793.667 334.814 797.095 335.221C800.522 335.629 801.384 339.81 814.553 339.81C820.954 339.81 815.652 338.616 814.873 326.131C814.657 322.742 813.371 323.633 812.516 321.543C811.66 319.452 812.947 318.247 815.513 318.247C818.079 318.247 818.422 318.148 817.014 315.848C815.606 313.547 816.485 312.657 814.756 311.655C813.028 310.653 812.301 314.957 812.301 314.957C812.301 314.957 811.23 313.955 811.66 309.762C812.091 305.57 812.405 307.567 811.125 306.764C809.845 305.96 809.083 306.962 807.372 304.172C805.661 301.383 807.162 301.977 805.125 298.582C803.089 295.187 804.154 296.981 806.406 296.981C808.658 296.981 807.476 296.48 806.406 295.385C801.692 290.511 816.752 293.906 816.426 294.127ZM416.724 140.303C415.735 142.009 418.4 144.193 420.332 143.517C422.264 142.842 422.892 143.593 423.992 142.708C425.092 141.823 425.191 140.547 423.887 139.278C422.584 138.009 423.113 137.269 422.892 137.135C420.431 135.627 417.719 138.597 416.724 140.303ZM946.348 30.2453C943.438 30.3443 940.237 30.4492 942.92 31.3401C945.603 32.2311 944.526 36.7324 949.664 34.2517C954.803 31.771 953.738 31.5556 957.276 30.0591C960.814 28.5625 958.766 29.2788 954.495 28.1665C951.812 27.4328 949.222 30.1288 946.348 30.2278V30.2453Z" fill="#FFF2FB" fill-opacity="0.1"/>
</g>
<defs>
<clipPath id="clip0_138_509">
<rect width="1323" height="725" fill="white"/>
</clipPath>
</defs>
</svg>
