<svg width="46" height="46" viewBox="0 0 46 46" fill="none" xmlns="http://www.w3.org/2000/svg">
<path d="M40.25 23C40.25 21.8563 39.7956 20.7594 38.9869 19.9506C38.1781 19.1419 37.0812 18.6875 35.9375 18.6875H28.75C28.75 20.2125 28.1442 21.675 27.0659 22.7534C25.9875 23.8317 24.525 24.4375 23 24.4375C21.475 24.4375 20.0125 23.8317 18.9341 22.7534C17.8558 21.675 17.25 20.2125 17.25 18.6875H10.0625C8.91875 18.6875 7.82185 19.1419 7.0131 19.9506C6.20435 20.7594 5.75 21.8563 5.75 23M40.25 23V34.5C40.25 35.6437 39.7956 36.7406 38.9869 37.5494C38.1781 38.3581 37.0812 38.8125 35.9375 38.8125H10.0625C8.91875 38.8125 7.82185 38.3581 7.0131 37.5494C6.20435 36.7406 5.75 35.6437 5.75 34.5V23M40.25 23V17.25M5.75 23V17.25M40.25 17.25C40.25 16.1063 39.7956 15.0094 38.9869 14.2006C38.1781 13.3919 37.0812 12.9375 35.9375 12.9375H10.0625C8.91875 12.9375 7.82185 13.3919 7.0131 14.2006C6.20435 15.0094 5.75 16.1063 5.75 17.25M40.25 17.25V11.5C40.25 10.3563 39.7956 9.25935 38.9869 8.4506C38.1781 7.64185 37.0812 7.1875 35.9375 7.1875H10.0625C8.91875 7.1875 7.82185 7.64185 7.0131 8.4506C6.20435 9.25935 5.75 10.3563 5.75 11.5V17.25" stroke="#DE0B7F" stroke-width="3.5" stroke-linecap="round" stroke-linejoin="round"/>
</svg>
