<svg width="36" height="36" viewBox="0 0 36 36" fill="none" xmlns="http://www.w3.org/2000/svg">
<g clip-path="url(#clip0_345_1179)">
<path d="M18 36C27.9411 36 36 27.9411 36 18C36 8.05887 27.9411 0 18 0C8.05887 0 0 8.05887 0 18C0 27.9411 8.05887 36 18 36Z" fill="#F0F0F0"/>
<path d="M18 0C10.8638 0 4.69763 4.15301 1.78613 10.1739H34.2139C31.3025 4.15301 25.1363 0 18 0Z" fill="black"/>
<path d="M18 36.0001C10.8638 36.0001 4.69763 31.8471 1.78613 25.8262H34.2139C31.3025 31.8471 25.1363 36.0001 18 36.0001Z" fill="#496E2D"/>
<path d="M35.15 12.5215H0.850008C0.298617 14.249 0 16.0894 0 17.9997C0 19.9101 0.298617 21.7505 0.850008 23.478H35.1499C35.7014 21.7505 36 19.9101 36 17.9997C36 16.0894 35.7014 14.249 35.15 12.5215Z" fill="#A2001D"/>
<path d="M23.6045 8.31787L21.4728 7.33398L17.9995 15.1985L14.5262 7.33398L12.3945 8.31787L16.7067 17.9998L12.3945 27.6818L14.5262 28.6657L17.9995 20.8012L21.4728 28.6657L23.6045 27.6818L19.2923 17.9998L23.6045 8.31787Z" fill="#F0F0F0"/>
<path d="M19.4474 9.24494C18.6222 8.34375 17.9996 7.82568 17.9996 7.82568C17.9996 7.82568 17.3769 8.34368 16.5518 9.24494V26.7542C17.3769 27.6555 17.9996 28.1736 17.9996 28.1736C17.9996 28.1736 18.6222 27.6556 19.4474 26.7542V9.24494Z" fill="#F0F0F0"/>
<path d="M14.0869 12.6028V23.3967C14.9589 24.9418 16.0262 26.2082 16.8261 27.0479V8.95166C16.0262 9.79126 14.9589 11.0578 14.0869 12.6028Z" fill="#A2001D"/>
<path d="M21.913 12.6028C21.0409 11.0577 19.9737 9.79126 19.1738 8.95166V27.0479C19.9736 26.2082 21.0409 24.9418 21.913 23.3967V12.6028Z" fill="#A2001D"/>
<path d="M21.9131 12.603V23.3968C22.7959 21.8325 23.4783 19.9826 23.4783 18C23.4783 16.0174 22.7959 14.1675 21.9131 12.603Z" fill="black"/>
<path d="M14.0867 12.603V23.3968C13.2039 21.8325 12.5215 19.9826 12.5215 18C12.5215 16.0174 13.2039 14.1675 14.0867 12.603Z" fill="black"/>
</g>
<defs>
<clipPath id="clip0_345_1179">
<rect width="36" height="36" fill="white"/>
</clipPath>
</defs>
</svg>
