<svg width="36" height="36" viewBox="0 0 36 36" fill="none" xmlns="http://www.w3.org/2000/svg">
<g clip-path="url(#clip0_345_1168)">
<path d="M18 36C27.9411 36 36 27.9411 36 18C36 8.05887 27.9411 0 18 0C8.05888 0 0 8.05887 0 18C0 27.9411 8.05888 36 18 36Z" fill="#F0F0F0"/>
<path d="M5.27207 30.7279C-1.75736 23.6984 -1.75736 12.3015 5.27207 5.27197C5.27157 5.27275 15.6522 17.9999 15.6522 17.9999L5.27207 30.7279Z" fill="black"/>
<path d="M15.6522 18.0001L2.38731 9.03613C1.97605 9.751 1.61338 10.4972 1.30176 11.2695L8.01723 18.0001L1.30197 24.7311C1.61331 25.5029 1.97563 26.2486 2.38661 26.9629L15.6522 18.0001Z" fill="#FFDA44"/>
<path d="M35.8477 15.6523H15.6518L5.27199 5.27246C4.15346 6.39099 3.18167 7.65598 2.38742 9.03629L11.3339 18.0001L2.38672 26.9629C3.18097 28.3435 4.15318 29.609 5.27199 30.7278L15.6518 20.348H35.8477C35.9478 19.5794 36.0001 18.7959 36.0001 18.0001C36.0001 17.2044 35.9478 16.4209 35.8477 15.6523Z" fill="#6DA544"/>
<path d="M7.04102 32.279C10.0763 34.6121 13.8758 36.0001 18.0001 36.0001C26.3166 36.0001 33.3145 30.3596 35.38 22.6958H16.6243L7.04102 32.279Z" fill="#0052B4"/>
<path d="M35.38 13.3043C33.3145 5.64054 26.3166 0 18.0001 0C13.8758 0 10.0763 1.38804 7.04102 3.72115L16.6242 13.3043H35.38Z" fill="#D80027"/>
</g>
<defs>
<clipPath id="clip0_345_1168">
<rect width="36" height="36" fill="white"/>
</clipPath>
</defs>
</svg>
