<svg width="192" height="193" viewBox="0 0 192 193" fill="none" xmlns="http://www.w3.org/2000/svg">
<mask id="mask0_282_260" style="mask-type:luminance" maskUnits="userSpaceOnUse" x="0" y="0" width="192" height="193">
<path fill-rule="evenodd" clip-rule="evenodd" d="M0 0.303711H191.698V193H0V0.303711Z" fill="white"/>
</mask>
<g mask="url(#mask0_282_260)">
<path fill-rule="evenodd" clip-rule="evenodd" d="M95.8488 0.303711C148.785 0.303711 191.698 43.4403 191.698 96.6517C191.698 149.863 148.785 193 95.8488 193C42.9128 193 0 149.863 0 96.6517C0 43.4403 42.9128 0.303711 95.8488 0.303711Z" fill="#F8F7FB"/>
</g>
<path fill-rule="evenodd" clip-rule="evenodd" d="M72 139.686L121.146 189C161.849 178.109 192 140.896 192 96.4226V93.6998L153.407 58L72 139.686Z" fill="#ECEBEF"/>
<path fill-rule="evenodd" clip-rule="evenodd" d="M97.8362 118.152C102.055 122.413 102.055 129.717 97.8362 133.978L89.0983 142.804C84.8799 147.065 77.6485 147.065 73.4301 142.804L35.1638 103.848C30.9454 99.5868 30.9454 92.2828 35.1638 88.022L43.9017 79.1959C48.1201 74.9347 55.3515 74.9347 59.5699 79.1959L97.8362 118.152Z" fill="#544E9E"/>
<path fill-rule="evenodd" clip-rule="evenodd" d="M131.436 51.1729C135.654 46.9424 142.884 46.9424 147.101 51.1729L155.837 59.9361C160.054 64.1667 160.054 71.419 155.837 75.6495L89.5637 141.827C85.3463 146.058 78.1165 146.058 73.8991 141.827L65.163 133.064C60.9457 128.833 60.9457 121.581 65.163 117.35L131.436 51.1729Z" fill="#544E9E"/>
</svg>
