<svg width="16" height="18" viewBox="0 0 16 18" fill="none" xmlns="http://www.w3.org/2000/svg">
<path d="M13.3636 9.57234C13.3832 8.18282 14.1985 6.86803 15.4918 6.14024C14.6759 5.07366 13.3092 4.39742 11.8874 4.3567C10.3708 4.211 8.90062 5.18729 8.12782 5.18729C7.34007 5.18729 6.15022 4.37117 4.86895 4.39529C3.19887 4.44468 1.64194 5.31376 0.82941 6.65015C-0.917205 9.41796 0.385612 13.4857 2.05872 15.723C2.89582 16.8185 3.87414 18.0423 5.15425 17.9989C6.40692 17.9513 6.87477 17.2678 8.38684 17.2678C9.88489 17.2678 10.3238 17.9989 11.6299 17.9713C12.9741 17.9513 13.821 16.8709 14.6287 15.765C15.2301 14.9844 15.693 14.1216 16 13.2087C14.4204 12.5972 13.3654 11.1422 13.3636 9.57234Z" fill="white"/>
<path d="M10.8966 2.88535C11.6295 2.08007 11.9906 1.04502 11.9031 0C10.7834 0.10764 9.74914 0.59745 9.00635 1.37184C8.27999 2.12845 7.90199 3.14529 7.97345 4.15037C9.09356 4.16092 10.1947 3.68439 10.8966 2.88535Z" fill="white"/>
</svg>
