<svg width="46" height="46" viewBox="0 0 46 46" fill="none" xmlns="http://www.w3.org/2000/svg">
<path d="M23.0094 42.1722C12.4239 42.1722 3.84268 33.5911 3.84268 23.0056C3.84268 12.4201 12.4239 3.83894 23.0094 3.83894C33.5948 3.83894 42.1761 12.4201 42.1761 23.0056C42.1761 33.5911 33.5948 42.1722 23.0094 42.1722ZM23.0094 38.3389C31.4778 38.3389 38.3427 31.474 38.3427 23.0056C38.3427 14.5372 31.4778 7.67228 23.0094 7.67228C14.541 7.67228 7.67602 14.5372 7.67602 23.0056C7.67602 31.474 14.541 38.3389 23.0094 38.3389ZM16.301 26.8389H26.8427C27.3719 26.8389 27.8011 26.4099 27.8011 25.8806C27.8011 25.3514 27.3719 24.9222 26.8427 24.9222H19.1761C16.5297 24.9222 14.3843 22.7769 14.3843 20.1306C14.3843 17.4843 16.5297 15.3389 19.1761 15.3389H21.0927V11.5056H24.9261V15.3389H29.7177V19.1722H19.1761C18.6467 19.1722 18.2177 19.6014 18.2177 20.1306C18.2177 20.6599 18.6467 21.0889 19.1761 21.0889H26.8427C29.4891 21.0889 31.6344 23.2342 31.6344 25.8806C31.6344 28.5269 29.4891 30.6722 26.8427 30.6722H24.9261V34.5056H21.0927V30.6722H16.301V26.8389Z" fill="white"/>
</svg>
