<svg width="46" height="46" viewBox="0 0 46 46" fill="none" xmlns="http://www.w3.org/2000/svg">
<path d="M11.9506 12.3688C9.29775 15.1253 7.66665 18.8722 7.66665 23C7.66665 31.4684 14.5316 38.3333 23 38.3333C25.0715 38.3333 27.0472 37.9226 28.8498 37.178C29.0703 35.7395 28.5867 34.3593 28.3889 33.8763C27.9488 32.8037 26.4962 30.9699 24.0712 28.4257C23.4239 27.7453 23.4655 27.2234 23.6969 25.6724L23.7235 25.4972C23.8807 24.4348 24.1444 23.8067 27.7192 23.2392C29.5352 22.9513 30.0129 23.6772 30.6749 24.6823C30.7481 24.7936 30.8213 24.9029 30.8963 25.0123C31.5251 25.9319 31.9911 26.1422 32.6949 26.4623C33.0102 26.6052 33.4036 26.7856 33.9309 27.0852C35.1806 27.7993 35.1806 28.6057 35.1806 30.3738V30.5743C35.1806 31.3248 35.1072 31.9838 34.9918 32.5563C37.0833 29.9355 38.3333 26.6137 38.3333 23C38.3333 16.6767 34.5057 11.2474 29.0411 8.90257C27.9808 9.61808 26.5263 10.6322 26.0187 11.3275C25.7592 11.6828 25.3924 13.4965 24.1992 13.6462C23.8866 13.6854 23.4673 13.658 23.023 13.6294C21.8318 13.5519 20.202 13.4474 19.6803 14.8637C19.3491 15.7611 19.2908 18.1977 20.3625 19.4624C20.534 19.6644 20.5672 20.0382 20.4506 20.4575C20.2975 21.0082 19.9881 21.3432 19.8917 21.4124C19.707 21.3062 19.3384 20.8784 19.0888 20.5873C18.4873 19.8883 17.7369 19.0178 16.7669 18.7484C16.4142 18.6508 16.0265 18.5699 15.6505 18.4908C14.5981 18.2702 13.406 18.0192 13.129 17.4283C12.9268 16.9955 12.9277 16.3994 12.9285 15.7696C12.9285 14.9715 12.9285 14.0689 12.5375 13.1916C12.3864 12.852 12.184 12.5819 11.9506 12.3688ZM23 42.1667C12.4145 42.1667 3.83331 33.5854 3.83331 23C3.83331 12.4145 12.4145 3.83333 23 3.83333C33.5853 3.83333 42.1666 12.4145 42.1666 23C42.1666 33.5854 33.5853 42.1667 23 42.1667Z" fill="white"/>
</svg>
