<svg width="173" height="55" viewBox="0 0 173 55" fill="none" xmlns="http://www.w3.org/2000/svg">
<mask id="mask0_138_511" style="mask-type:alpha" maskUnits="userSpaceOnUse" x="0" y="0" width="56" height="55">
<circle cx="27.7143" cy="27.5" r="27.5" fill="#D9D9D9"/>
</mask>
<g mask="url(#mask0_138_511)">
<rect x="-12.0536" y="-0.762695" width="79.5357" height="56.5255" rx="3.5" fill="white" stroke="#F5F5F5"/>
<mask id="mask1_138_511" style="mask-type:luminance" maskUnits="userSpaceOnUse" x="-13" y="-2" width="81" height="59">
<rect x="-12.0536" y="-0.762695" width="79.5357" height="56.5255" rx="3.5" fill="white" stroke="white"/>
</mask>
<g mask="url(#mask1_138_511)">
<rect x="41.1369" y="-1.2627" width="26.8452" height="57.5255" fill="#189B62"/>
<path fill-rule="evenodd" clip-rule="evenodd" d="M-12.5536 56.2628H14.2917L14.2917 -1.2627L-12.5536 -1.2627L-12.5536 56.2628Z" fill="#189B62"/>
</g>
</g>
<mask id="mask2_138_511" style="mask-type:alpha" maskUnits="userSpaceOnUse" x="39" y="0" width="56" height="55">
<circle cx="66.7143" cy="27.5" r="27.5" fill="#D9D9D9"/>
</mask>
<g mask="url(#mask2_138_511)">
<rect x="26.0372" y="-1.55493" width="81.3542" height="58.1101" rx="4" fill="white"/>
<mask id="mask3_138_511" style="mask-type:luminance" maskUnits="userSpaceOnUse" x="26" y="-2" width="82" height="59">
<rect x="26.0372" y="-1.55493" width="81.3542" height="58.1101" rx="4" fill="white"/>
</mask>
<g mask="url(#mask3_138_511)">
<path fill-rule="evenodd" clip-rule="evenodd" d="M26.0372 17.8151H107.391V-1.55493H26.0372V17.8151Z" fill="#E71F37"/>
<path fill-rule="evenodd" clip-rule="evenodd" d="M26.0372 56.5552H107.391V37.1852H26.0372V56.5552Z" fill="#118B56"/>
<path fill-rule="evenodd" clip-rule="evenodd" d="M26.0372 37.1851H107.391V17.8151H26.0372V37.1851Z" fill="#FDD64C"/>
<path fill-rule="evenodd" clip-rule="evenodd" d="M66.7143 32.1829L61.0216 36.3039L63.1818 29.6164L57.5033 25.4758L64.5311 25.4637L66.7143 18.7836L68.8975 25.4637L75.9253 25.4758L70.2468 29.6164L72.407 36.3039L66.7143 32.1829Z" fill="#262626"/>
</g>
</g>
<g clip-path="url(#clip0_138_511)">
<path d="M105.715 55.0001C120.902 55.0001 133.215 42.688 133.215 27.5001C133.215 12.3123 120.902 0.00012207 105.715 0.00012207C90.5267 0.00012207 78.2145 12.3123 78.2145 27.5001C78.2145 42.688 90.5267 55.0001 105.715 55.0001Z" fill="#F0F0F0"/>
<path d="M86.2689 46.9456C75.5295 36.2061 75.5295 18.7941 86.2689 8.05457C86.2681 8.05575 102.127 27.5001 102.127 27.5001L86.2689 46.9456Z" fill="black"/>
<path d="M102.127 27.5001L81.8616 13.8052C81.2333 14.8973 80.6792 16.0373 80.2031 17.2172L90.4629 27.5002L80.2035 37.7837C80.6791 38.9627 81.2327 40.1019 81.8605 41.1933L102.127 27.5001Z" fill="#FFDA44"/>
<path d="M132.982 23.9131L102.127 23.9131L86.2686 8.05493C84.5597 9.7638 83.075 11.6964 81.8616 13.8052L95.5298 27.5L81.8605 41.1931C83.074 43.3024 84.5593 45.2357 86.2686 46.945L102.127 31.0869L132.982 31.0869C133.134 29.9128 133.214 28.7157 133.214 27.5C133.214 26.2843 133.134 25.0872 132.982 23.9131Z" fill="#6DA544"/>
<path d="M88.9712 49.315C93.6085 52.8795 99.4132 55.0001 105.714 55.0001C118.42 55.0001 129.111 46.3826 132.267 34.6741H103.612L88.9712 49.315Z" fill="#0052B4"/>
<path d="M132.267 20.3262C129.111 8.61761 118.42 0.00012207 105.714 0.00012207C99.4132 0.00012207 93.6085 2.12074 88.9712 5.68521L103.612 20.3262L132.267 20.3262Z" fill="#D80027"/>
</g>
<g clip-path="url(#clip1_138_511)">
<path d="M144.714 54.9999C159.902 54.9999 172.214 42.6877 172.214 27.4999C172.214 12.312 159.902 -0.00012207 144.714 -0.00012207C129.526 -0.00012207 117.214 12.312 117.214 27.4999C117.214 42.6877 129.526 54.9999 144.714 54.9999Z" fill="#F0F0F0"/>
<path d="M144.714 -0.00012207C133.812 -0.00012207 124.391 6.34475 119.943 15.5434H169.485C165.037 6.34475 155.617 -0.00012207 144.714 -0.00012207Z" fill="black"/>
<path d="M144.714 54.9999C133.812 54.9999 124.391 48.6551 119.943 39.4564H169.485C165.037 48.6551 155.617 54.9999 144.714 54.9999Z" fill="#496E2D"/>
<path d="M170.916 19.1302H118.513C117.67 21.7695 117.214 24.5813 117.214 27.4998C117.214 30.4184 117.67 33.2301 118.513 35.8694H170.916C171.758 33.2301 172.214 30.4184 172.214 27.4998C172.214 24.5813 171.758 21.7695 170.916 19.1302Z" fill="#A2001D"/>
<path d="M153.277 12.708L150.021 11.2048L144.714 23.2201L139.408 11.2048L136.151 12.708L142.739 27.4999L136.151 42.2918L139.408 43.7949L144.714 31.7797L150.021 43.7949L153.277 42.2918L146.689 27.4999L153.277 12.708Z" fill="#F0F0F0"/>
<path d="M146.926 14.1246C145.665 12.7478 144.714 11.9563 144.714 11.9563C144.714 11.9563 143.763 12.7477 142.502 14.1246V40.8748C143.763 42.2518 144.714 43.0433 144.714 43.0433C144.714 43.0433 145.665 42.2519 146.926 40.8749V14.1246Z" fill="#F0F0F0"/>
<path d="M138.736 19.2544V35.7449C140.068 38.1055 141.699 40.0404 142.921 41.3232V13.6761C141.699 14.9589 140.068 16.8939 138.736 19.2544Z" fill="#A2001D"/>
<path d="M150.692 19.2544C149.36 16.8938 147.73 14.9589 146.508 13.6761V41.3232C147.73 40.0404 149.36 38.1055 150.692 35.7449V19.2544Z" fill="#A2001D"/>
<path d="M150.692 19.2545V35.7451C152.041 33.355 153.084 30.5289 153.084 27.4999C153.084 24.4709 152.041 21.6447 150.692 19.2545Z" fill="black"/>
<path d="M138.736 19.2545V35.7451C137.387 33.355 136.345 30.5289 136.345 27.4999C136.345 24.4709 137.387 21.6447 138.736 19.2545Z" fill="black"/>
</g>
<defs>
<clipPath id="clip0_138_511">
<rect width="55" height="55" fill="white" transform="translate(78.2143)"/>
</clipPath>
<clipPath id="clip1_138_511">
<rect width="55" height="55" fill="white" transform="translate(117.214)"/>
</clipPath>
</defs>
</svg>
