<svg width="46" height="46" viewBox="0 0 46 46" fill="none" xmlns="http://www.w3.org/2000/svg">
<path d="M23.0094 42.1723C12.4239 42.1723 3.84268 33.5912 3.84268 23.0056C3.84268 12.4202 12.4239 3.83899 23.0094 3.83899C33.5948 3.83899 42.1761 12.4202 42.1761 23.0056C42.1761 33.5912 33.5948 42.1723 23.0094 42.1723ZM23.0094 38.3389C31.4778 38.3389 38.3427 31.474 38.3427 23.0056C38.3427 14.5373 31.4778 7.67232 23.0094 7.67232C14.541 7.67232 7.67602 14.5373 7.67602 23.0056C7.67602 31.474 14.541 38.3389 23.0094 38.3389ZM17.2593 24.9223H15.3427V21.0889H17.2593V19.1723C17.2593 15.4674 20.2628 12.464 23.9677 12.464C26.7837 12.464 29.1945 14.1991 30.1892 16.6586L26.3818 17.6104C25.8694 16.8202 24.9797 16.2973 23.9677 16.2973C22.38 16.2973 21.0927 17.5845 21.0927 19.1723V21.0889H26.8427V24.9223H21.0927V28.7556H30.6761V32.5889H15.3427V28.7556H17.2593V24.9223Z" fill="#DE0B7F"/>
</svg>
