<svg width="56" height="56" viewBox="0 0 56 56" fill="none" xmlns="http://www.w3.org/2000/svg">
<g clip-path="url(#clip0_142_1047)">
<path d="M28.0002 56.0002C43.4642 56.0002 56.0003 43.4642 56.0003 28.0002C56.0003 12.5363 43.4642 0.000244141 28.0002 0.000244141C12.5363 0.000244141 0.000244141 12.5363 0.000244141 28.0002C0.000244141 43.4642 12.5363 56.0002 28.0002 56.0002Z" fill="#F0F0F0"/>
<path d="M8.20104 47.799C-2.73362 36.8643 -2.73362 19.1357 8.20104 8.20093C8.20027 8.20213 24.348 28 24.348 28L8.20104 47.799Z" fill="black"/>
<path d="M24.3479 28L3.71363 14.0562C3.0739 15.1682 2.50974 16.3289 2.02499 17.5302L12.4713 28.0002L2.02532 38.4706C2.50963 39.6711 3.07324 40.831 3.71254 41.9423L24.3479 28Z" fill="#FFDA44"/>
<path d="M55.763 24.3479H24.3471L8.20073 8.20142C6.46079 9.94135 4.94912 11.9091 3.71362 14.0563L17.6304 28L3.71252 41.9421C4.94802 44.0898 6.46035 46.0582 8.20073 47.7986L24.3471 31.6522H55.763C55.9186 30.4567 56 29.2378 56 28C56 26.7622 55.9186 25.5434 55.763 24.3479Z" fill="#6DA544"/>
<path d="M10.9525 50.2116C15.6741 53.8409 21.5844 56.0001 27.9999 56.0001C40.9366 56.0001 51.8223 47.2259 55.0353 35.3044H25.8597L10.9525 50.2116Z" fill="#0052B4"/>
<path d="M55.0353 20.6956C51.8223 8.77417 40.9366 0 27.9999 0C21.5844 0 15.6741 2.15917 10.9525 5.78845L25.8596 20.6956H55.0353Z" fill="#D80027"/>
</g>
<defs>
<clipPath id="clip0_142_1047">
<rect width="56" height="56" fill="white"/>
</clipPath>
</defs>
</svg>
