<svg width="56" height="56" viewBox="0 0 56 56" fill="none" xmlns="http://www.w3.org/2000/svg">
<g clip-path="url(#clip0_306_8811)">
<path d="M28 56C43.4639 56 56 43.464 56 28C56 12.536 43.4639 0 28 0C12.536 0 -3.05176e-05 12.536 -3.05176e-05 28C-3.05176e-05 43.464 12.536 56 28 56Z" fill="#F0F0F0"/>
<path d="M27.9999 0C16.899 0 7.30729 6.46023 2.77829 15.8261H53.2215C48.6926 6.46023 39.1007 0 27.9999 0Z" fill="black"/>
<path d="M27.9999 56C16.899 56 7.30729 49.5397 2.77829 40.1738H53.2215C48.6926 49.5397 39.1007 56 27.9999 56Z" fill="#496E2D"/>
<path d="M54.6777 19.478H1.32219C0.46447 22.1653 -4.57764e-05 25.0282 -4.57764e-05 27.9998C-4.57764e-05 30.9714 0.46447 33.8343 1.32219 36.5215H54.6776C55.5354 33.8343 56 30.9714 56 27.9998C56 25.0282 55.5354 22.1653 54.6777 19.478Z" fill="#A2001D"/>
<path d="M36.7188 12.9389L33.4028 11.4084L27.9999 23.6422L22.597 11.4084L19.2811 12.9389L25.9889 27.9998L19.2811 43.0606L22.597 44.5911L27.9999 32.3574L33.4028 44.5911L36.7188 43.0606L30.011 27.9998L36.7188 12.9389Z" fill="#F0F0F0"/>
<path d="M30.2521 14.3813C28.9685 12.9795 28 12.1736 28 12.1736C28 12.1736 27.0314 12.9793 25.7478 14.3813V41.6179C27.0314 43.02 28 43.8258 28 43.8258C28 43.8258 28.9685 43.0201 30.2521 41.618V14.3813Z" fill="#F0F0F0"/>
<path d="M21.913 19.6044V36.3948C23.2694 38.7983 24.9296 40.7684 26.1739 42.0745V13.9248C24.9296 15.2309 23.2693 17.201 21.913 19.6044Z" fill="#A2001D"/>
<path d="M34.0869 19.6044C32.7303 17.2009 31.0702 15.2309 29.8259 13.9248V42.0745C31.0701 40.7684 32.7303 38.7983 34.0869 36.3948V19.6044Z" fill="#A2001D"/>
<path d="M34.0869 19.6047V36.3951C35.4601 33.9616 36.5217 31.0841 36.5217 28C36.5217 24.916 35.4601 22.0383 34.0869 19.6047Z" fill="black"/>
<path d="M21.913 19.6047V36.3951C20.5398 33.9616 19.4782 31.0841 19.4782 28C19.4782 24.916 20.5398 22.0383 21.913 19.6047Z" fill="black"/>
</g>
<defs>
<clipPath id="clip0_306_8811">
<rect width="56" height="56" fill="white"/>
</clipPath>
</defs>
</svg>
